<svg width="133" height="27" viewBox="0 0 133 27" fill="none" xmlns="http://www.w3.org/2000/svg">
<g id="2">
<g id="OpenWorld">
<path d="M11.3842 27.0004C11.5753 26.956 11.7663 26.9153 12.0603 26.8486C7.71345 26.3008 4.38811 24.2316 2.12099 20.6187C-0.160815 16.9911 -0.609094 13.0858 0.812904 9.0325C3.04327 2.66562 9.78582 -1.08417 16.2712 0.278043C22.5728 1.59954 27.5883 7.46669 27.0151 14.4888C26.4787 21.0703 21.0222 26.608 14.9704 26.7561C15.2423 26.8635 15.4187 26.9301 15.5987 27.0004H11.3842ZM22.6683 13.4523C22.841 8.57349 18.5603 4.21292 13.2912 4.34248C8.38587 4.46093 4.2742 8.62531 4.35504 13.593C4.43955 18.7679 8.76066 22.8582 14.0004 22.6213C18.6412 22.4103 22.8006 18.5199 22.6683 13.4523Z" fill="black"/>
<path d="M86.1145 21.1556C85.0122 17.0652 83.9209 13.0267 82.8185 8.93264C83.6269 8.93264 84.3728 8.90673 85.1151 8.95486C85.2547 8.96226 85.4494 9.23989 85.4898 9.41757C86.1182 12.1235 86.7281 14.8368 87.3454 17.5464C87.4042 17.813 87.4887 18.0721 87.5843 18.4348C87.6504 18.2572 87.6945 18.1609 87.7202 18.061C88.4477 15.2366 89.1716 12.4122 89.8955 9.58784C90.0081 9.14611 90.2862 8.92524 90.7296 8.92524C91.2623 8.92524 91.7988 8.94745 92.3316 8.92524C92.699 8.91044 92.835 9.08071 92.9158 9.41016C93.6213 12.316 94.3415 15.2218 95.058 18.1239C95.069 18.1646 95.1021 18.2016 95.194 18.346C95.3042 17.9092 95.3961 17.5612 95.4769 17.2096C96.0685 14.5888 96.6637 11.968 97.2443 9.34353C97.3178 9.01408 97.4684 8.90673 97.8101 8.91784C98.4936 8.94745 99.177 8.92524 99.934 8.92524C99.8972 9.11033 99.8788 9.25099 99.8421 9.38425C98.7839 13.1711 97.722 16.9579 96.6711 20.7484C96.5902 21.0445 96.4653 21.1704 96.142 21.1593C95.4548 21.1334 94.7677 21.1371 94.0806 21.1593C93.7977 21.1667 93.6911 21.0778 93.6176 20.8002C92.9268 18.1091 92.2214 15.4217 91.5159 12.7343C91.5012 12.6787 91.4608 12.6343 91.3836 12.4974C91.2954 12.7121 91.2219 12.8527 91.1815 13.0008C90.476 15.5475 89.7669 18.0906 89.0761 20.641C88.9732 21.0149 88.8372 21.1889 88.4073 21.1667C87.6467 21.1223 86.8824 21.1556 86.1182 21.1556H86.1145Z" fill="black"/>
<path d="M52.6884 11.4461V12.8379C52.7912 12.7713 52.8574 12.7491 52.8978 12.7009C54.8857 10.4207 58.4535 11.124 59.6955 13.6486C60.6802 15.6512 60.6361 17.6649 59.3133 19.5231C57.8289 21.6072 54.9114 21.8441 53.0595 20.0821C52.9639 19.9932 52.9125 19.86 52.8427 19.7452C52.7986 19.7748 52.7545 19.8045 52.7067 19.8341V25.7827C51.9204 25.7827 51.1782 25.7938 50.4396 25.7642C50.3698 25.7642 50.2522 25.5235 50.2486 25.3977C50.2339 23.7689 50.2412 22.1402 50.2412 20.5152C50.2412 17.639 50.2412 14.7628 50.2302 11.8866C50.2302 11.546 50.3367 11.4276 50.6748 11.435C51.3288 11.4535 51.9792 11.4387 52.692 11.4387L52.6884 11.4461ZM57.8289 16.3471C57.8289 16.2249 57.8325 16.1028 57.8289 15.9806C57.7738 14.8664 57.0425 13.8855 56.0358 13.5782C55.029 13.271 53.8568 13.6412 53.2505 14.4555C52.501 15.4587 52.523 17.0578 53.302 18.1313C54.1398 19.2899 55.7969 19.4898 56.8919 18.5681C57.5864 17.9832 57.8472 17.2207 57.8325 16.3434L57.8289 16.3471Z" fill="black"/>
<path d="M42.7711 21.2074C39.2988 21.2333 36.5871 18.5607 36.5467 15.0848C36.5063 11.5423 39.1923 8.8364 42.7601 8.81789C46.2361 8.79939 48.9441 11.4831 48.9552 14.959C48.9699 18.5089 46.3243 21.1778 42.7675 21.2037L42.7711 21.2074ZM42.7013 19.0752C44.5055 19.1011 45.8613 18.1979 46.2508 16.547C46.4382 15.7511 46.4823 14.8812 46.3867 14.0706C46.1663 12.2419 45.0346 11.1981 43.2231 10.9612C41.3014 10.7094 39.6773 11.7237 39.1849 13.5856C39.0159 14.2297 39.0343 14.9368 39.0526 15.6142C39.1004 17.4169 40.504 19.1493 42.705 19.0752H42.7013Z" fill="black"/>
<path d="M132.956 21.1556C132.221 21.1556 131.538 21.1667 130.854 21.1408C130.759 21.1371 130.601 20.9483 130.59 20.8298C130.553 20.5041 130.579 20.1709 130.579 19.7859C130.479 19.8341 130.417 19.8415 130.387 19.8785C129.09 21.6368 126.019 21.7886 124.292 19.9118C122.495 17.9573 122.521 14.4592 124.369 12.5788C125.993 10.9278 128.653 10.9093 130.277 12.5381C130.351 12.6121 130.435 12.6713 130.557 12.7713C130.571 12.6417 130.593 12.5603 130.593 12.4788C130.586 11.1722 130.586 9.86547 130.568 8.55878C130.564 8.27745 130.663 8.18121 130.939 8.19231C131.471 8.21082 132.008 8.21082 132.541 8.19971C132.871 8.19231 133 8.31447 133 8.65132C132.982 12.39 132.974 16.1324 132.96 19.8711C132.96 20.2783 132.96 20.6855 132.96 21.1593L132.956 21.1556ZM130.568 16.2434C130.568 16.1361 130.571 16.0325 130.568 15.9251C130.498 14.5629 129.568 13.5745 128.234 13.4413C126.93 13.3117 125.82 14.0928 125.512 15.418C125.412 15.8511 125.401 16.3249 125.449 16.7728C125.622 18.3608 127.029 19.3825 128.561 19.0678C129.8 18.8161 130.593 17.7056 130.564 16.2434H130.568Z" fill="black"/>
<path d="M63.8512 17.0541C63.9835 18.8235 65.6443 19.8156 67.1876 19.0678C67.4742 18.9309 67.7167 18.6643 67.9188 18.4089C68.1099 18.1646 68.3083 18.0758 68.617 18.0869C69.282 18.1128 69.9508 18.0943 70.682 18.0943C70.366 19.1567 69.7854 19.8933 68.9697 20.4411C66.2874 22.2439 61.7274 21.0963 61.4224 16.7247C61.2938 14.8886 61.8009 13.2636 63.3956 12.1827C64.9572 11.124 66.6658 11.0648 68.3634 11.8014C69.9765 12.5048 70.7628 13.8374 70.9392 15.5549C70.9649 15.8104 71.0016 16.0695 71.0127 16.3249C71.0347 16.9764 71.02 16.9986 70.3807 17.0134C69.6164 17.0282 68.8558 17.0245 68.0915 17.0245C66.8569 17.0245 65.6186 17.0245 64.384 17.0245C64.2076 17.0245 64.0276 17.043 63.8512 17.0541ZM63.9027 15.3662H68.4222C68.492 14.226 67.4962 13.3561 66.133 13.3191C64.9095 13.2858 63.888 14.2075 63.9027 15.3662Z" fill="black"/>
<path d="M110.891 16.336C110.836 19.3232 108.69 21.3184 105.611 21.2518C102.943 21.1963 100.963 19.0456 101.003 16.2509C101.047 13.3673 103.175 11.2869 106.015 11.3498C108.896 11.4165 110.946 13.5116 110.895 16.336H110.891ZM108.396 16.2509C108.396 16.1139 108.403 15.9769 108.396 15.84C108.33 14.5222 107.408 13.5412 106.111 13.4191C104.946 13.308 103.821 14.0484 103.586 15.207C103.454 15.8474 103.432 16.547 103.539 17.1874C103.799 18.7791 105.332 19.5787 106.823 18.979C107.86 18.5644 108.396 17.6316 108.396 16.2472V16.2509Z" fill="black"/>
<path d="M72.5927 21.1334C72.5927 20.4893 72.5927 19.8822 72.5927 19.2751C72.5927 16.8246 72.6 14.3778 72.578 11.9273C72.578 11.5312 72.7066 11.4276 73.0777 11.4387C73.7133 11.4609 74.3527 11.4461 75.0325 11.4461V12.7084C75.3338 12.4751 75.5689 12.3234 75.771 12.1346C77.4208 10.5799 81.2275 11.3424 81.6978 14.3926C82.0396 16.6136 81.8705 18.8494 81.8485 21.1223H79.4491C79.4491 20.9668 79.4491 20.8076 79.4491 20.6447C79.4491 19.1382 79.4528 17.6316 79.4491 16.125C79.4491 15.8067 79.4271 15.4846 79.3756 15.1737C79.1882 14.0113 78.4717 13.4006 77.3106 13.3932C76.087 13.3858 75.3338 13.9817 75.1243 15.1515C75.0766 15.418 75.0582 15.6956 75.0582 15.9658C75.0508 17.5168 75.0582 19.0678 75.0582 20.6225C75.0582 20.7854 75.0582 20.9483 75.0582 21.1371H72.5963L72.5927 21.1334Z" fill="black"/>
<path d="M121.565 21.1371H119.188C119.17 20.7817 119.136 20.4374 119.136 20.0932C119.129 16.262 119.129 12.4307 119.122 8.59579C119.122 8.3848 119.122 8.18861 119.416 8.18861C120.114 8.18861 120.816 8.18861 121.565 8.18861V21.1371Z" fill="black"/>
<path d="M114.632 11.4461V12.923C116.289 11.5127 116.531 11.3795 117.578 11.3202V13.8152C117.108 13.8596 116.667 13.8818 116.23 13.9484C115.389 14.0743 114.852 14.5888 114.72 15.4291C114.65 15.877 114.632 16.336 114.628 16.7913C114.617 18.2312 114.624 19.6712 114.624 21.1334H112.221C112.203 20.741 112.17 20.3523 112.17 19.9636C112.162 17.2725 112.17 14.5814 112.151 11.894C112.151 11.5571 112.254 11.4313 112.592 11.4424C113.246 11.4609 113.897 11.4461 114.628 11.4461H114.632Z" fill="black"/>
</g>
</g>
</svg>
