<svg width="16" height="15" viewBox="0 0 16 15" fill="none" xmlns="http://www.w3.org/2000/svg">
<g id="Arrow(Black)">
<path id="Arrow" fill-rule="evenodd" clip-rule="evenodd" d="M10.0828 0.778416L15.7397 6.82784C16.0868 7.19906 16.0868 7.80093 15.7397 8.17216L10.0828 14.2216C9.73566 14.5928 9.17285 14.5928 8.82572 14.2216C8.47859 13.8504 8.47859 13.2485 8.82572 12.8773L12.9651 8.45057L0.88889 8.45058C0.39797 8.45058 6.04224e-07 8.02499 5.6207e-07 7.5C5.19915e-07 6.97501 0.39797 6.54942 0.888889 6.54942L12.9651 6.54942L8.82572 2.12273C8.47859 1.75151 8.47859 1.14964 8.82572 0.778416C9.17285 0.407193 9.73566 0.407193 10.0828 0.778416Z" fill="#031529"/>
</g>
</svg>
