<svg width="18" height="16" viewBox="0 0 18 16" fill="none" xmlns="http://www.w3.org/2000/svg">
<path id="Line 1 (Stroke)" fill-rule="evenodd" clip-rule="evenodd" d="M11.3431 0.92894L17.7071 7.2929C18.0976 7.68342 18.0976 8.31659 17.7071 8.70711L11.3431 15.0711C10.9526 15.4616 10.3195 15.4616 9.92893 15.0711C9.53841 14.6806 9.53841 14.0474 9.92893 13.6569L14.5858 9.00001L1 9.00001C0.447716 9.00001 6.9206e-07 8.55229 6.43778e-07 8.00001C5.95496e-07 7.44772 0.447716 7.00001 1 7.00001L14.5858 7.00001L9.92893 2.34315C9.53841 1.95263 9.53841 1.31946 9.92893 0.92894C10.3195 0.538415 10.9526 0.538415 11.3431 0.92894Z" fill="white"/>
</svg>
