<svg width="770" height="1104" viewBox="0 0 770 1104" fill="none" xmlns="http://www.w3.org/2000/svg">
<g filter="url(#filter0_f_249_3469)">
<path d="M413.926 625.75C387.313 653.718 349.94 672.631 308.522 679.089C267.104 685.547 224.358 679.127 187.966 660.982C151.574 642.838 123.922 614.159 109.981 580.099C96.0397 546.039 96.7226 508.833 111.907 475.167C127.092 441.5 155.782 413.581 192.822 396.428C229.862 379.274 272.822 374.01 313.983 381.583C355.143 389.155 391.804 409.067 417.377 437.74C442.95 466.413 455.758 501.966 453.499 538.011L355.624 533.501C356.631 517.43 350.921 501.579 339.519 488.795C328.117 476.011 311.772 467.133 293.42 463.757C275.069 460.381 255.915 462.728 239.401 470.376C222.887 478.024 210.095 490.471 203.325 505.482C196.555 520.492 196.25 537.08 202.466 552.266C208.682 567.451 221.01 580.238 237.236 588.328C253.461 596.418 272.52 599.28 290.986 596.401C309.452 593.521 326.115 585.089 337.98 572.619L413.926 625.75Z" fill="#5AE370"/>
<path d="M320.954 121.406C331.671 92.8647 372.037 92.8646 382.754 121.406L516.753 478.284C524.857 499.867 508.905 522.901 485.853 522.901H217.855C194.803 522.901 178.851 499.867 186.955 478.284L320.954 121.406Z" fill="#FFCA0D"/>
<path d="M614.192 568.268L676 798.644H485.315L419.562 702.654L614.192 568.268Z" fill="#2F51FF"/>
<path d="M499.394 861.86C397.678 1009.67 259.977 1048.47 191.829 948.529C123.682 848.587 150.895 647.744 252.611 499.935C354.328 352.126 492.029 313.323 560.176 413.265C628.323 513.208 601.11 714.051 499.394 861.86Z" fill="#C4FFA0"/>
</g>
<defs>
<filter id="filter0_f_249_3469" x="0" y="0" width="776" height="1104" filterUnits="userSpaceOnUse" color-interpolation-filters="sRGB">
<feFlood flood-opacity="0" result="BackgroundImageFix"/>
<feBlend mode="normal" in="SourceGraphic" in2="BackgroundImageFix" result="shape"/>
<feGaussianBlur stdDeviation="50" result="effect1_foregroundBlur_249_3469"/>
</filter>
</defs>
</svg>
