<svg width="20" height="20" viewBox="0 0 20 20" fill="none" xmlns="http://www.w3.org/2000/svg">
<g id="Done">
<g id="Done_2">
<path d="M20 10C20 15.5228 15.5228 20 10 20C4.47715 20 0 15.5228 0 10C0 4.47715 4.47715 0 10 0C15.5228 0 20 4.47715 20 10Z" fill="#007BFF"/>
<path fill-rule="evenodd" clip-rule="evenodd" d="M14.6935 5.14525C15.0276 5.3902 15.0998 5.85955 14.8548 6.19357L9.35482 13.6936C9.21945 13.8782 9.0072 13.9908 8.77846 13.9995C8.54972 14.0082 8.32954 13.9119 8.18057 13.7381L5.18057 10.2381C4.911 9.92365 4.94743 9.45017 5.26192 9.18061C5.57641 8.91104 6.04989 8.94746 6.31946 9.26196L8.70424 12.0442L13.6452 5.30653C13.8902 4.9725 14.3595 4.9003 14.6935 5.14525Z" fill="white"/>
</g>
</g>
</svg>
