<svg width="32" height="26" viewBox="0 0 32 26" fill="none" xmlns="http://www.w3.org/2000/svg">
<path fill-rule="evenodd" clip-rule="evenodd" d="M0.653961 3.27606C0 4.55953 0 6.23969 0 9.6V16.4C0 19.7603 0 21.4405 0.653961 22.7239C1.2292 23.8529 2.14708 24.7708 3.27606 25.346C4.55953 26 6.23969 26 9.6 26H22.4C25.7603 26 27.4405 26 28.7239 25.346C29.8529 24.7708 30.7708 23.8529 31.346 22.7239C32 21.4405 32 19.7603 32 16.4V9.6C32 6.23969 32 4.55953 31.346 3.27606C30.7708 2.14708 29.8529 1.2292 28.7239 0.653961C27.4405 0 25.7603 0 22.4 0H9.6C6.23969 0 4.55953 0 3.27606 0.653961C2.14708 1.2292 1.2292 2.14708 0.653961 3.27606ZM9 8H23C23.5523 8 24 8.44771 24 9C24 9.55228 23.5523 10 23 10H9C8.44771 10 8 9.55228 8 9C8 8.44771 8.44771 8 9 8ZM23 12H9C8.44771 12 8 12.4477 8 13C8 13.5523 8.44771 14 9 14H23C23.5523 14 24 13.5523 24 13C24 12.4477 23.5523 12 23 12ZM23 16H9C8.44771 16 8 16.4477 8 17C8 17.5523 8.44771 18 9 18H23C23.5523 18 24 17.5523 24 17C24 16.4477 23.5523 16 23 16Z" fill="#464646"/>
</svg>
