<svg width="25" height="22" viewBox="0 0 25 22" fill="none" xmlns="http://www.w3.org/2000/svg">
<g id="Icon">
<path d="M25 13.2082C25 12.8991 24.9339 12.5978 24.8722 12.2971C24.8683 12.2781 24.864 12.2591 24.8601 12.24C24.8192 12.0377 24.7771 11.8393 24.6858 11.6526C24.6662 11.6129 24.6471 11.5732 24.6274 11.5335C24.5973 11.472 24.5673 11.41 24.5372 11.3485C24.4974 11.2669 24.4575 11.1859 24.4176 11.1042C24.369 11.0048 24.3203 10.9053 24.2717 10.8058C24.2154 10.6901 24.1586 10.5744 24.1023 10.4587C24.039 10.3284 23.975 10.1987 23.9117 10.0685C23.8423 9.92596 23.7723 9.78343 23.703 9.64145C23.6281 9.4883 23.5533 9.33515 23.4784 9.18255C23.3997 9.02045 23.3205 8.85891 23.2413 8.69738C23.2091 8.63142 23.1768 8.56546 23.1446 8.49951C23.0413 8.40225 22.9599 8.27704 22.9102 8.13395C22.8293 7.90142 22.643 7.59232 22.5026 7.33072C22.342 7.03224 22.2076 6.7209 22.1158 6.39391C22.0644 6.28883 22.0131 6.18374 21.9617 6.07866C21.8765 5.90427 21.7913 5.72987 21.706 5.55604C21.623 5.38611 21.54 5.21619 21.4569 5.04627C21.3771 4.88249 21.2968 4.71872 21.2171 4.55494C21.1411 4.39955 21.0652 4.24416 20.9892 4.08877C20.9182 3.94344 20.8472 3.79811 20.7761 3.65279C20.7106 3.5192 20.6456 3.3856 20.58 3.25257C20.5215 3.13296 20.4631 3.01334 20.4046 2.89316C20.3538 2.78976 20.303 2.68579 20.2522 2.58182C20.2101 2.49519 20.1681 2.40855 20.1254 2.32247C20.0927 2.25539 20.0604 2.18832 20.0276 2.12124C20.0052 2.07597 19.9828 2.03013 19.9604 1.9843C19.9495 1.96194 19.9386 1.93958 19.9277 1.91666C19.9266 1.91499 19.9255 1.91275 19.9244 1.91052C19.3485 0.732234 18.1908 0 16.9025 0H15.0138C14.9668 0.0245941 14.9171 0.0435987 14.8641 0.0558957C13.7473 0.318047 12.5792 0.0329785 11.4494 0.0363322C10.8708 0.0380091 10.2933 0.0581316 9.71743 0H8.11224C6.82449 0 5.66622 0.732234 5.09037 1.91052L4.15446 3.8255C4.12387 3.89761 4.09273 3.96916 4.05995 4.04014C4.01405 4.14076 3.95996 4.23969 3.90369 4.33863L3.40924 5.35034C3.40651 5.35705 3.40432 5.36264 3.40268 5.36711C3.32674 5.55324 3.25244 5.73993 3.17103 5.92327C3.08034 6.12897 2.97708 6.32348 2.85961 6.51465C2.82464 6.5711 2.79022 6.62812 2.75635 6.68513L2.08051 8.06743C1.97452 8.35809 1.88382 8.65769 1.76199 8.9394C1.63086 9.24236 1.46204 9.50842 1.26207 9.74151L0.304318 11.7012C0.240941 11.8309 0.215263 11.9796 0.17975 12.1193C0.142052 12.2686 0.106539 12.4178 0.0770357 12.5687C0.0131125 12.8996 0 13.2255 0 13.5609V15.4345C0.04644 15.8068 0.0305957 16.1773 0 16.5546V17.857C0.0169369 18.0431 0.0218541 18.2293 0 18.4132V19.1834C0 20.7384 1.23257 21.9994 2.75252 21.9994H3.83977C3.87965 21.9911 3.92008 21.9832 3.96106 21.9765C4.38776 21.9061 4.80462 21.9195 5.2346 21.9022C5.63508 21.886 6.03119 21.8441 6.43166 21.8854C6.69664 21.9128 6.95998 21.9547 7.22278 22H15.2979C16.637 21.8485 17.9788 21.834 19.325 21.948C19.5223 21.9648 19.719 21.9827 19.9162 22H22.2475C23.7674 22 25 20.739 25 19.184V17.4138C24.9984 17.4076 24.9967 17.4009 24.9951 17.3948C24.8498 16.7939 24.8339 15.9711 25 15.3462V13.2082ZM4.33531 9.7035L4.99967 8.34411C5.00896 7.94222 5.17614 7.55934 5.43949 7.20328C5.64655 6.9238 5.81538 6.61805 5.99076 6.31622L6.2612 5.76285C6.28305 5.67006 6.30545 5.57672 6.30709 5.56833C6.36938 5.25364 6.44641 4.95068 6.60049 4.66506C6.73216 4.42023 6.91846 4.21901 7.11078 4.02505L7.23425 3.7724C7.27086 3.67291 7.31566 3.58012 7.36975 3.49572L7.53366 3.16034C7.64347 2.9362 7.86748 2.79479 8.11224 2.79479H9.88734C10.3446 2.70312 10.7834 2.70424 11.2554 2.70983C12.3508 2.7238 13.4463 2.64275 14.5401 2.73218C14.6335 2.74001 14.7231 2.76181 14.8067 2.79479H16.9031C17.1495 2.79479 17.3713 2.93508 17.4816 3.16034L17.7712 3.7534C17.8723 3.82103 17.9684 3.89481 18.057 3.9781C18.4771 4.37049 18.5967 4.90429 18.6006 5.45095L19.2977 6.87797C19.643 7.36147 19.9288 7.88242 20.0741 8.46709L20.6789 9.70406C20.833 10.0204 20.6084 10.3921 20.2631 10.3921H17.3604C16.967 10.4531 16.5457 10.4134 16.1496 10.4156C15.3077 10.4212 14.4674 10.4877 13.6249 10.4698C13.1403 10.4598 12.6557 10.4167 12.1716 10.3921H11.0139C10.9637 10.396 10.9134 10.4 10.8626 10.405C9.98241 10.4927 9.09021 10.5179 8.20567 10.5006C7.86912 10.4939 7.54076 10.4447 7.21404 10.3921H4.75054C4.40524 10.3921 4.18069 10.0204 4.33476 9.70406L4.33531 9.7035ZM22.2682 17.6698C22.2682 18.5177 21.5962 19.2052 20.7674 19.2052H19.8779C19.2496 19.4171 18.5754 19.3243 17.9275 19.2885C17.2402 19.2505 16.5528 19.2203 15.865 19.2175C15.8049 19.2248 15.7448 19.2197 15.6863 19.2052H13.5812C13.4594 19.2896 13.3135 19.3399 13.1594 19.341C12.2536 19.3461 11.2986 19.4785 10.4271 19.2052H5.89351C5.81702 19.2673 5.7296 19.3137 5.63508 19.3377C5.3854 19.4008 5.1297 19.4187 4.87456 19.3902C4.68934 19.3695 4.52598 19.3092 4.3965 19.2052H4.23369C3.40487 19.2052 2.73286 18.5177 2.73286 17.6698V14.7218C2.73286 13.8739 3.40487 13.1864 4.23369 13.1864H7.68554C8.18218 13.0064 8.71542 13.1299 9.23773 13.1148C9.74474 13.1003 10.2512 13.1176 10.7522 13.1864H11.2019C11.2554 13.1735 11.3106 13.1662 11.3674 13.1662C12.3722 13.1634 13.4053 13.0326 14.4046 13.1623C14.4729 13.1713 14.5401 13.1791 14.6067 13.1864H15.9371C16.0994 13.1757 16.2644 13.1724 16.4261 13.1864H19.3021C19.5703 13.1785 19.8386 13.1769 20.1069 13.1864H20.7685C21.5973 13.1864 22.2693 13.8739 22.2693 14.7218V17.6698H22.2682Z" fill="#666"/>
<path d="M5.58208 17.3864C5.91809 17.165 6.141 16.7788 6.141 16.3394C6.141 15.6519 5.59574 15.0941 4.92373 15.0941C4.25172 15.0941 3.70646 15.6519 3.70646 16.3394C3.70646 17.027 4.20855 17.5395 4.84342 17.582C5.07999 17.4887 5.33513 17.4322 5.58208 17.3869V17.3864Z" fill="#666"/>
<path d="M7.98931 17.4132C8.25867 17.3657 8.51545 17.3506 8.78644 17.3573C9.09841 17.132 9.3022 16.7603 9.3022 16.34C9.3022 16.0024 9.17053 15.6961 8.9569 15.4714C8.8602 15.425 8.77497 15.3579 8.7105 15.2713C8.67499 15.2495 8.63838 15.2299 8.60068 15.2115C8.55752 15.198 8.5149 15.1835 8.4712 15.1718C8.41164 15.1561 8.35155 15.1449 8.29199 15.131C8.28708 15.1299 8.2838 15.1287 8.27997 15.1276C8.27615 15.1276 8.27342 15.1282 8.2685 15.1287C8.26304 15.1287 8.22916 15.1259 8.19474 15.1237C8.18983 15.1259 8.18436 15.1276 8.17835 15.1304C8.04559 15.1813 7.90572 15.1768 7.7746 15.1354C7.25283 15.2763 6.8682 15.762 6.8682 16.3394C6.8682 16.9168 7.23262 17.3769 7.73253 17.5317C7.80683 17.473 7.89316 17.4305 7.98986 17.4132H7.98931Z" fill="#666"/>
<path d="M20.656 15.0941H18.859C18.7541 15.1505 18.6361 15.1835 18.5126 15.183C17.5844 15.1813 16.6572 15.1315 15.7295 15.0941H11.575C11.203 15.0941 10.9014 15.4026 10.9014 15.7833V16.8956C10.9014 17.2763 11.203 17.5848 11.575 17.5848H13.9134C14.1139 17.5731 14.3133 17.563 14.5106 17.558C15.0362 17.5434 15.5623 17.5535 16.0879 17.5747C16.5343 17.4915 16.9927 17.5071 17.456 17.535C17.4582 17.535 17.4603 17.535 17.4625 17.535C17.6669 17.53 17.8717 17.5278 18.0761 17.5272C18.1242 17.5272 18.1711 17.5323 18.217 17.5418C18.735 17.5261 19.2529 17.4808 19.772 17.478C19.9085 17.4775 20.038 17.5166 20.1506 17.5842H20.656C21.028 17.5842 21.3296 17.2757 21.3296 16.895V15.7827C21.3296 15.4021 21.028 15.0935 20.656 15.0935V15.0941Z" fill="#666"/>
</g>
</svg>
