<svg width="25" height="20" viewBox="0 0 25 20" fill="none" xmlns="http://www.w3.org/2000/svg">
<g id="Icon">
<path d="M22.4095 11.7195C22.3343 11.5894 22.3409 11.5228 22.4317 11.4695C22.4176 11.3978 22.4746 11.3215 22.4196 11.2498C22.464 11.2104 22.4524 11.1551 22.4539 11.1064C22.4569 10.9902 22.4695 10.8729 22.3782 10.773C22.3545 10.7469 22.3586 10.6742 22.3762 10.6348C22.4045 10.5702 22.3934 10.5118 22.3868 10.4483C22.3747 10.3362 22.3606 10.223 22.3636 10.1108C22.3666 9.991 22.3636 9.87167 22.3631 9.75183C22.3631 9.58488 22.3802 9.41843 22.3838 9.25148C22.3858 9.168 22.3732 9.08401 22.3671 8.99438C22.4045 8.98209 22.4372 8.97185 22.473 8.96058C22.473 8.91398 22.4841 8.86686 22.4695 8.82947C22.4569 8.79721 22.4156 8.77672 22.3853 8.74856C22.4337 8.68044 22.349 8.61438 22.3611 8.53551C22.3747 8.44896 22.3429 8.35165 22.3697 8.27227C22.3999 8.18111 22.3631 8.1048 22.3631 8.02183C22.3631 7.93631 22.3631 7.85078 22.3631 7.75962C22.4019 7.75194 22.4362 7.74579 22.4786 7.73708C22.47 7.72428 22.4645 7.7166 22.4604 7.7084C22.4418 7.66999 22.4277 7.62851 22.4039 7.59369C22.3429 7.50201 22.348 7.44568 22.4393 7.36066C22.413 7.34888 22.3913 7.33966 22.3631 7.32686C22.3646 7.25875 22.3707 7.19883 22.405 7.1261C22.4504 7.03033 22.4458 6.90691 22.3893 6.79936C22.3722 6.76658 22.3606 6.72305 22.3656 6.6872C22.3807 6.58375 22.4065 6.48183 22.4297 6.36916C22.4045 6.36763 22.3878 6.3666 22.3666 6.36507C22.3666 6.33383 22.354 6.29286 22.3686 6.27186C22.4312 6.18428 22.4085 6.08749 22.3898 6.00196C22.3636 5.88058 22.3248 5.77099 22.4372 5.67163C22.4811 5.63322 22.4685 5.58098 22.4246 5.54616C22.3732 5.50519 22.3575 5.45346 22.3616 5.39047C22.3671 5.30545 22.3702 5.22044 22.3747 5.13542C22.3747 5.12774 22.3823 5.11852 22.3797 5.1134C22.3232 5.00227 22.3888 4.92647 22.4534 4.85016C22.4554 4.84812 22.4534 4.84248 22.4534 4.82865C22.4241 4.83019 22.3954 4.83121 22.3601 4.83275C22.3601 4.71496 22.3591 4.60126 22.3611 4.48757C22.3611 4.46452 22.3737 4.44199 22.3772 4.41843C22.3848 4.36773 22.408 4.30986 22.3929 4.26684C22.3545 4.15878 22.3621 4.05225 22.3671 3.94317C22.3691 3.89912 22.3616 3.85406 22.3575 3.80284C22.3828 3.78953 22.408 3.77621 22.4332 3.7629C22.4317 3.75624 22.4302 3.74958 22.4287 3.74343C22.4065 3.74599 22.3848 3.74907 22.357 3.75214C22.3308 3.68249 22.2955 3.61028 22.2784 3.53448C22.2637 3.46688 22.2032 3.40747 22.2229 3.32707C22.1961 3.30965 22.1462 3.29275 22.1215 3.25742C22.0968 3.22208 22.0968 3.16882 22.0852 3.1176C22.0781 3.11555 22.06 3.11043 22.0418 3.10531C22.0605 3.08585 22.0786 3.06588 22.0983 3.04539C22.0771 3.02286 22.0519 2.99674 22.0277 2.97011C22.013 2.95423 21.9999 2.93631 21.9863 2.91992C21.9677 2.93733 21.9465 2.95321 21.9308 2.97318C21.9228 2.98393 21.9238 3.00237 21.9041 3.02081C21.891 2.98035 21.8779 2.9404 21.8597 2.88355C21.8224 2.87331 21.7735 2.86 21.725 2.84566C21.6802 2.83234 21.6363 2.81339 21.5904 2.80571C21.5354 2.79649 21.5092 2.76372 21.4875 2.71557C21.4809 2.70123 21.4426 2.68792 21.4249 2.69355C21.3246 2.72582 21.2252 2.69919 21.1273 2.68689C20.9639 2.6659 20.796 2.6997 20.6361 2.6408C20.6214 2.63517 20.5987 2.62953 20.5887 2.6367C20.4621 2.72735 20.3254 2.64848 20.1942 2.66231C20.1251 2.66948 20.0545 2.66231 19.9844 2.6618C19.9728 2.6618 19.9602 2.66282 19.9496 2.65924C19.8976 2.64285 19.8492 2.62493 19.7892 2.63107C19.7332 2.6367 19.6737 2.607 19.6177 2.59266C19.4936 2.70277 19.3938 2.70892 19.311 2.60649C19.2571 2.66538 19.1809 2.69611 19.1123 2.66999C19.0533 2.64746 18.9877 2.65309 18.9368 2.60751C18.8798 2.67665 18.8167 2.69099 18.7401 2.66129C18.7133 2.65104 18.6795 2.6577 18.6493 2.65873C18.5696 2.66231 18.4899 2.67051 18.4102 2.67051C18.3699 2.67051 18.332 2.66948 18.2917 2.63619C18.2619 2.6111 18.1883 2.58242 18.1474 2.65412C18.1414 2.66487 18.1177 2.67563 18.1076 2.67153C17.9996 2.63005 17.8872 2.6915 17.7797 2.65617C17.6632 2.61776 17.5517 2.67204 17.4377 2.6746C17.2768 2.67819 17.1164 2.67511 16.9555 2.6746C16.7906 2.6746 16.6252 2.6787 16.4602 2.67255C16.37 2.66948 16.2827 2.63875 16.1889 2.65617C16.0749 2.67768 15.9599 2.68843 15.8434 2.65617C15.8086 2.64644 15.7657 2.67255 15.7264 2.67307C15.5095 2.67511 15.2926 2.67409 15.0833 2.67409C15.0404 2.64746 15.0732 2.56859 14.9995 2.58037C14.9652 2.586 14.9647 2.58191 14.9456 2.6577C14.7115 2.70021 14.4825 2.66846 14.2591 2.58652C14.249 2.60956 14.2445 2.6198 14.2399 2.63056C14.2344 2.6449 14.2319 2.66795 14.2223 2.67153C14.2087 2.67614 14.1829 2.6828 14.1885 2.64336C14.191 2.62646 14.1612 2.5901 14.1426 2.58703C14.0936 2.57935 14.0422 2.58498 13.9923 2.58549C13.9519 2.68382 13.8763 2.62902 13.8172 2.62032C13.7779 2.61468 13.7436 2.607 13.7199 2.64029C13.6937 2.67716 13.6594 2.67512 13.6236 2.67512C13.4137 2.67512 13.2039 2.67512 12.9946 2.67512C12.9865 2.67512 12.9774 2.67768 12.9704 2.67512C12.8286 2.61724 12.6824 2.65617 12.5386 2.6577C12.1891 2.66129 11.8395 2.66948 11.49 2.67563C11.4658 2.67563 11.4421 2.67563 11.4153 2.67563C11.4037 2.65207 11.3937 2.63158 11.3826 2.60802C11.372 2.61007 11.3604 2.61059 11.3498 2.61468C11.3059 2.63261 11.264 2.65668 11.2186 2.66897C11.1778 2.68024 11.1334 2.69099 11.1097 2.62851C11.093 2.58447 11.0345 2.58959 11.0229 2.61878C10.9917 2.69816 10.9316 2.66795 10.8807 2.67153C10.8343 2.6746 10.7874 2.67409 10.741 2.67102C10.6613 2.66487 10.5816 2.65565 10.5024 2.64695C10.4747 2.64387 10.4429 2.62749 10.4197 2.63619C10.2941 2.68485 10.163 2.65975 10.0353 2.67255C9.97532 2.67819 9.91328 2.6828 9.85427 2.67409C9.69085 2.65002 9.52793 2.67768 9.36501 2.67614C9.19957 2.6746 9.03413 2.67614 8.86869 2.67512C8.82683 2.67512 8.78597 2.68382 8.74814 2.64029C8.72645 2.61519 8.67047 2.60137 8.63617 2.61007C8.5479 2.63158 8.45156 2.6029 8.36784 2.65719C8.34615 2.67102 8.31386 2.67102 8.28612 2.67102C8.11009 2.67255 7.93356 2.68792 7.76106 2.63312C7.73937 2.62595 7.70809 2.62185 7.69044 2.6321C7.60066 2.68485 7.50331 2.67307 7.40748 2.67409C7.19816 2.67614 6.98833 2.67511 6.77851 2.6746C6.7548 2.6746 6.72 2.68075 6.7084 2.66795C6.65745 2.6111 6.5939 2.58293 6.5127 2.57371C6.43149 2.67051 6.30892 2.67051 6.18686 2.66436C6.11725 2.66078 6.04815 2.64183 5.97855 2.63568C5.91953 2.63056 5.86002 2.62544 5.81361 2.68382C5.79646 2.70584 5.75813 2.71865 5.72837 2.72172C5.60732 2.73504 5.50644 2.79803 5.40254 2.85283C5.35109 2.87997 5.29006 2.89687 5.24971 2.93579C5.0762 3.10429 4.92236 3.28814 4.81845 3.51348C4.76549 3.6282 4.74027 3.74907 4.71505 3.8684C4.69438 3.96519 4.71808 4.07069 4.71707 4.17209C4.71455 4.37592 4.70497 4.57975 4.70396 4.78359C4.70396 4.89267 4.71707 5.00124 4.7206 5.11033C4.72262 5.17383 4.72565 5.2358 4.68227 5.29521C4.65806 5.32799 4.65049 5.37613 4.69589 5.42427C4.72262 5.45244 4.72111 5.5226 4.71102 5.56921C4.69942 5.62554 4.68731 5.67214 4.71203 5.73155C4.7322 5.78021 4.7206 5.84371 4.72111 5.90056C4.72161 6.19043 4.72313 6.48081 4.71959 6.77068C4.71909 6.82548 4.69892 6.88028 4.68731 6.93508C4.68429 6.95044 4.6737 6.96734 4.67672 6.98066C4.71102 7.13225 4.68328 7.28333 4.67672 7.43441C4.67269 7.53428 4.69286 7.63466 4.69891 7.73504C4.70749 7.8687 4.72817 8.00391 4.71455 8.13501C4.70648 8.21132 4.6853 8.28558 4.68731 8.3665C4.68782 8.40235 4.63687 8.43923 4.60459 8.48224C4.7085 8.57955 4.7317 8.70861 4.72262 8.85252C4.71505 8.96673 4.72161 9.08145 4.72111 9.19616C4.72111 9.28067 4.72363 9.36415 4.6853 9.44506C4.64646 9.527 4.6737 9.61202 4.70043 9.69294C4.71203 9.72879 4.71253 9.75747 4.70144 9.79639C4.68479 9.8558 4.66663 9.92186 4.71253 9.98537C4.72514 10.0028 4.70093 10.0473 4.69286 10.0822C4.70093 10.1139 4.71808 10.1528 4.71959 10.1918C4.72313 10.3224 4.72413 10.453 4.71959 10.5835C4.71808 10.6261 4.70497 10.6752 4.68076 10.709C4.60661 10.813 4.62023 10.9098 4.68378 11.0102C4.73321 11.088 4.72968 11.1326 4.68227 11.2263C4.66916 11.2524 4.65604 11.2964 4.66865 11.3159C4.75339 11.448 4.7201 11.5889 4.70446 11.7282C4.69841 11.7845 4.70446 11.8362 4.71052 11.8921C4.72817 12.0457 4.7428 12.207 4.71354 12.3561C4.68883 12.482 4.68731 12.5942 4.71455 12.7166C4.7317 12.795 4.7312 12.881 4.71959 12.9609C4.69791 13.1109 4.72161 13.2595 4.72111 13.4085C4.72111 13.5043 4.66714 13.5816 4.65554 13.6722C4.65049 13.7107 4.64948 13.8238 4.6737 13.8469C4.71203 13.8832 4.72413 13.9263 4.72262 13.979C4.71808 14.1619 4.71606 14.3452 4.71505 14.528C4.71505 14.5849 4.72716 14.6433 4.71959 14.6991C4.71102 14.7621 4.69034 14.8246 4.66714 14.884C4.65806 14.908 4.63082 14.9372 4.60812 14.9413C4.47497 14.9644 4.34635 15.0371 4.20461 14.9454C4.1335 14.8993 4.03867 14.9096 3.95847 14.9639C3.89088 15.01 3.81018 15.0048 3.7542 14.947C3.71031 14.9014 3.66189 14.8901 3.61347 14.9208C3.48586 15.0018 3.35018 14.9905 3.20845 14.9823C3.04099 14.9726 2.87253 14.9884 2.70406 14.9895C2.63748 14.99 2.56838 15.0053 2.50836 14.9541C2.49575 14.9434 2.46246 14.9526 2.44077 14.9593C2.33535 14.9925 2.31467 14.9859 2.25112 14.8957C2.23094 14.8671 2.21178 14.8302 2.18353 14.8169C2.11039 14.7821 2.08719 14.7211 2.08518 14.6499C2.08265 14.569 2.09072 14.4876 2.09375 14.4061C2.09476 14.379 2.09224 14.3513 2.09173 14.3242C2.09072 14.2551 2.07711 14.1828 2.09173 14.1173C2.11544 14.0082 2.10283 13.9032 2.08971 13.7957C2.08064 13.7235 2.08114 13.6482 2.08971 13.5755C2.10283 13.4607 2.12654 13.347 2.14621 13.2328C2.14722 13.2267 2.15579 13.2164 2.15579 13.2164C2.05138 13.1432 2.11796 13.03 2.09274 12.9378C2.08215 12.8984 2.09072 12.8533 2.09072 12.8021C2.1114 12.7893 2.13864 12.7729 2.16689 12.7555C2.1573 12.7468 2.14722 12.7371 2.1341 12.7253C2.18858 12.691 2.21581 12.6649 2.16588 12.5906C2.12754 12.5327 2.13763 12.4416 2.12654 12.3653C2.11191 12.2618 2.09526 12.1589 2.08518 12.0549C2.07963 11.9991 2.0766 11.9417 2.11846 11.8915C2.13057 11.8767 2.13461 11.8378 2.12401 11.8239C2.06702 11.7512 2.07862 11.6662 2.08719 11.5884C2.10333 11.4393 1.9964 11.3594 1.92327 11.2616C1.90914 11.2427 1.85013 11.2529 1.81331 11.2585C1.7886 11.2621 1.7659 11.2918 1.74219 11.2918C1.64989 11.2918 1.55759 11.2847 1.46326 11.2801C1.46831 11.2637 1.47335 11.2463 1.47991 11.2242C1.45519 11.2058 1.42947 11.1868 1.41232 11.1746C1.34978 11.1904 1.29581 11.2012 1.24486 11.2201C1.23579 11.2232 1.23932 11.2616 1.23679 11.2862C1.10061 11.3282 0.983087 11.2514 0.851442 11.2119C0.828744 11.2334 0.800499 11.2611 0.771749 11.2888C0.710213 11.2683 0.650695 11.2478 0.580081 11.2242C0.496857 11.3149 0.401023 11.279 0.307207 11.2206C0.155386 11.1264 0.0560217 10.9881 0.0232365 10.812C0.00860924 10.7341 0.0126443 10.6501 0.00457414 10.5692C3.46419e-05 10.5252 -0.00450485 10.4729 0.0141575 10.4366C0.0565261 10.3526 0.0353418 10.2742 0.0126443 10.1948C-0.00753118 10.1236 -0.0065224 10.0607 0.0590481 10.0202C-0.00400046 9.82046 -0.00147852 9.62636 0.034333 9.4297C0.0474471 9.35851 0.0560217 9.28989 0.0181926 9.21665C-0.00551363 9.17107 0.00104342 9.10449 0.00709608 9.04918C0.0136531 8.98875 0.0318111 8.92883 0.0519866 8.87198C0.0661095 8.83203 0.0807368 8.79004 0.139246 8.78389C0.163961 8.78133 0.184641 8.7419 0.213895 8.71271C0.224487 8.71424 0.271395 8.73063 0.276944 8.72141C0.315277 8.65637 0.40405 8.69171 0.442887 8.62974C0.449445 8.61899 0.480717 8.62103 0.499883 8.62206C0.634555 8.6282 0.768722 8.64203 0.903394 8.64152C1.04261 8.64101 1.18131 8.62308 1.32002 8.62052C1.3644 8.6195 1.4098 8.64203 1.45419 8.65586C1.51421 8.67481 1.57322 8.69581 1.6393 8.71834C1.69377 8.6323 1.76892 8.60413 1.86476 8.61642C1.89704 8.62052 1.93235 8.59901 1.9732 8.58723C1.98077 8.60721 1.98884 8.62769 1.99792 8.65176C2.0075 8.64306 2.02364 8.63589 2.02364 8.6282C2.02566 8.54933 2.05794 8.48942 2.10737 8.42693C2.15529 8.36701 2.18555 8.29173 2.15024 8.20262C2.11846 8.12324 2.10384 8.03617 2.08568 7.95167C2.08114 7.92965 2.08316 7.89226 2.09627 7.88304C2.16235 7.83644 2.13259 7.77959 2.12654 7.72018C2.12048 7.65822 2.10182 7.59881 2.12704 7.53018C2.13965 7.49587 2.09274 7.42622 2.05592 7.38883C1.9611 7.29255 1.83046 7.27002 1.70588 7.24338C1.67309 7.23621 1.63324 7.27206 1.59541 7.27565C1.52732 7.28179 1.45822 7.27923 1.39013 7.27872C1.27815 7.2777 1.16618 7.27718 1.05471 7.27309C0.958372 7.26899 0.862034 7.29152 0.764183 7.24953C0.72131 7.23109 0.657757 7.26489 0.602779 7.27053C0.546791 7.27616 0.4903 7.27975 0.434313 7.27821C0.302163 7.27462 0.241132 7.22956 0.195737 7.10818C0.190189 7.09333 0.185649 7.07745 0.179092 7.05799C0.0666139 7.05594 0.0136531 6.99551 0.0126443 6.88233C0.0116356 6.8009 -0.0226628 6.72203 0.0333243 6.63855C0.0575349 6.60219 0.0313067 6.53356 0.0333243 6.47927C0.0363506 6.40297 0.018697 6.32922 0.0106268 6.25496C-0.00400046 6.11975 0.00255658 5.98045 0.01214 5.84422C0.0202102 5.73309 0.0479515 5.62349 0.0630832 5.51287C0.0661095 5.49136 0.0565261 5.46678 0.0479515 5.44527C-0.00450485 5.31672 -0.0206453 5.18817 0.0338286 5.05553C0.0454296 5.02685 0.043412 4.99203 0.045934 4.96027C0.0580393 4.79793 0.152864 4.68321 0.273413 4.63968C0.323852 4.62175 0.369751 4.61714 0.425234 4.63046C0.493831 4.64684 0.571002 4.67962 0.637581 4.61253C0.648678 4.60126 0.675915 4.60229 0.695586 4.60331C0.80756 4.60895 0.91903 4.61817 1.031 4.62277C1.06127 4.6238 1.09153 4.61253 1.12432 4.60639C1.18131 4.68423 1.24739 4.74313 1.35684 4.70113V4.61356C1.41636 4.61048 1.47083 4.60792 1.53337 4.60485C1.54296 4.62892 1.55254 4.65402 1.56868 4.69499C1.59441 4.6028 1.6625 4.61356 1.72605 4.60024C1.80373 4.58385 1.8234 4.68372 1.89553 4.66784C1.93436 4.62021 1.9727 4.569 2.01507 4.52086C2.05743 4.47323 2.08316 4.42048 2.08265 4.35544C2.08265 4.32061 2.07307 4.28118 2.11796 4.26325C2.05895 4.23201 2.12805 4.1808 2.09627 4.13163C2.06702 4.08657 2.0882 4.00616 2.09072 3.94163C2.09274 3.8853 2.09879 3.82947 2.10384 3.77365C2.11947 3.6154 2.12805 3.45664 2.15276 3.29992C2.1916 3.05358 2.26222 2.81544 2.34947 2.58191C2.37419 2.51584 2.40244 2.46258 2.48364 2.46155C2.50029 2.354 2.48415 2.24441 2.54518 2.15376C2.55375 2.14044 2.57998 2.13942 2.60268 2.13122C2.57393 2.01855 2.64858 1.93508 2.71617 1.87311C2.80393 1.79219 2.85992 1.69591 2.91943 1.59758C2.95272 1.54278 2.99005 1.49054 3.02586 1.43677C3.03494 1.42345 3.0425 1.39887 3.0531 1.39784C3.17516 1.38248 3.19483 1.27647 3.24527 1.19145C3.27553 1.14075 3.34161 1.11105 3.39356 1.07468C3.42584 1.05215 3.48737 1.03935 3.49191 1.01425C3.51158 0.902094 3.61498 0.877 3.67955 0.814519C3.7204 0.775084 3.78446 0.736162 3.83692 0.73821C3.90955 0.740771 3.9156 0.700312 3.93124 0.650635C4.02808 0.705946 4.05178 0.585081 4.11181 0.574326C4.19554 0.559474 4.21521 0.490848 4.26968 0.43861C4.28582 0.469338 4.29994 0.495969 4.30852 0.512358C4.3529 0.502115 4.39477 0.492384 4.45025 0.480093V0.362301C4.48808 0.344376 4.52187 0.32133 4.5592 0.312112C4.66361 0.286505 4.75692 0.224536 4.86788 0.220439C4.93799 0.217878 5.00306 0.197905 5.05148 0.140034C5.06056 0.129279 5.08074 0.126718 5.09637 0.124157C5.3299 0.0883076 5.55688 0.0135355 5.79747 0.0237783C5.97149 0.0314603 6.14651 0.0253147 6.32758 0.0253147C6.33313 0.0417031 6.34171 0.0667978 6.35028 0.0913804C6.36239 0.0883076 6.3755 0.0872833 6.37601 0.0847226C6.38307 0.0360696 6.42039 0.0186569 6.45873 0.0166083C6.54699 0.0109748 6.63577 0.0104627 6.72454 0.0130234C6.74572 0.0135355 6.7664 0.0329967 6.78658 0.0447759C6.81987 0.0647493 6.85265 0.0852348 6.89351 0.11033C6.91974 0.0345331 6.96513 0.00995054 7.03121 0.00892626C7.07811 0.00841412 7.11594 0.0498973 7.17243 0.0176326C7.21279 -0.0054136 7.27483 0.00738985 7.32678 0.0114869C7.38932 0.0166083 7.45136 0.0345331 7.51391 0.0360696C7.56283 0.037606 7.61176 0.019169 7.66119 0.0166083C7.75248 0.0114869 7.84579 -0.00848642 7.93406 0.0370938C7.94364 0.0422152 7.95726 0.0427274 7.96836 0.0406788C8.26343 -0.00438932 8.5595 0.000732057 8.85507 0.0355574C8.90955 0.0422152 8.96453 0.0596279 9.01446 0.0831862C9.0765 0.111866 9.13451 0.117499 9.19856 0.0944532C9.27119 0.0683342 9.34534 0.0647493 9.42352 0.0688464C9.53549 0.0744799 9.64898 0.0678221 9.76095 0.0575793C9.92387 0.0432395 10.0853 0.0586036 10.2477 0.0657735C10.345 0.0703828 10.4535 0.115451 10.5453 0.0478487C10.5967 0.00995054 10.6497 0.00431702 10.7052 0.0119991C10.742 0.0171205 10.7758 0.0406788 10.8272 0.0632128C11.0134 -0.036654 11.2338 0.0181447 11.4476 0.0125112C11.6489 0.00687771 11.8506 0.0232661 12.0524 0.0283875C12.0756 0.0288996 12.0998 0.0196812 12.123 0.0135355C12.2123 -0.0095107 12.293 0.0186569 12.3681 0.0616764C12.3944 0.0770406 12.4085 0.114427 12.4297 0.143618C12.4796 0.105208 12.528 0.0657735 12.5795 0.0309482C12.5981 0.0181447 12.6234 0.0119991 12.6461 0.0109748C12.7106 0.00841412 12.7752 0.00790199 12.8397 0.0109748C12.8604 0.0119991 12.8897 0.022754 12.8982 0.0386302C12.928 0.0918926 12.9517 0.0924047 12.984 0.0417031C12.988 0.0350453 13.0107 0.0411909 13.0248 0.0396545C13.094 0.0329967 13.161 0.0504094 13.2347 0.0196812C13.2851 -0.00131649 13.3668 0.0278753 13.4238 0.0570672C13.498 0.0949654 13.5691 0.0498973 13.6387 0.0708949C13.7133 -0.0212899 13.8167 0.0207054 13.909 0.0104627C13.9206 0.00892626 13.9327 0.0130234 13.9433 0.0145598C13.9928 0.0545065 13.9711 0.145667 14.0578 0.167689C14.0664 0.143618 14.0725 0.122109 14.081 0.102135C14.1053 0.0458002 14.1421 0.00790199 14.2086 0.00995054C14.4613 0.0186569 14.7135 0.0253147 14.9662 0.0355574C14.991 0.0365817 15.0253 0.0468244 15.0384 0.0652614C15.0797 0.122109 15.1165 0.0995746 15.1609 0.0719192C15.1892 0.0545065 15.223 0.0360696 15.2542 0.0360696C15.568 0.037606 15.8822 0.0417031 16.1959 0.0473366C16.2534 0.0483609 16.3145 0.0493851 16.3664 0.0698706C16.4053 0.0852348 16.4229 0.0806255 16.4471 0.0545065C16.4537 0.0473366 16.4718 0.0442638 16.4809 0.0483609C16.6045 0.101623 16.7341 0.0662857 16.8607 0.0755042C16.8648 0.0755042 16.8688 0.0775527 16.8728 0.0765284C16.9843 0.0493851 17.0958 0.0207054 17.2118 0.0458002C17.4019 -0.0438239 17.585 0.0417031 17.7706 0.0698706C17.7964 0.0739677 17.8201 0.0918926 17.8473 0.105208C17.8796 0.0458002 17.9265 0.00841412 18.0032 0.00995054C18.1757 0.0130234 18.3477 0.00790199 18.5202 0.0119991C18.5999 0.0140476 18.679 0.0299239 18.7582 0.0396545C18.7819 0.0427273 18.8112 0.0560429 18.8278 0.0468245C18.965 -0.0279477 19.1128 0.0109748 19.252 0.0176326C19.3872 0.0242904 19.5209 0.0119991 19.6555 0.019169C19.7438 0.0237783 19.8326 0.0094384 19.9208 0.0119991C19.9662 0.0135355 20.0106 0.0396545 20.056 0.0442638C20.1453 0.0534822 20.2361 0.0642371 20.3254 0.0596279C20.5402 0.0483609 20.7521 -0.00438932 20.969 0.0104627C21.034 0.0150719 21.0991 0.0273632 21.1647 0.0294118C21.2272 0.0314603 21.2898 0.0248025 21.3523 0.022754C21.3679 0.022754 21.3831 0.0268511 21.4037 0.030436C21.4058 0.06731 21.4078 0.100599 21.4098 0.136961C21.4784 0.120572 21.547 0.121084 21.5949 0.0888197C21.6605 0.0442638 21.722 0.0683342 21.779 0.0806255C21.9616 0.119548 22.1568 0.153349 22.298 0.277799C22.4635 0.423758 22.6768 0.488799 22.8347 0.645513C22.9149 0.725407 23.0324 0.767402 23.1348 0.823225C23.2861 0.906192 23.439 0.986085 23.5913 1.06751C23.6054 1.0752 23.6165 1.08749 23.6301 1.09671C23.7436 1.17455 23.8198 1.26827 23.7693 1.41884C23.7643 1.43369 23.7663 1.45111 23.7663 1.46698C23.7663 1.47057 23.7698 1.47415 23.7713 1.47774C23.8137 1.46493 23.8566 1.45162 23.9101 1.43523C24.0281 1.62318 24.1491 1.80294 24.2566 1.99141C24.308 2.08155 24.4003 2.12764 24.4503 2.2147C24.4931 2.28948 24.5597 2.34018 24.6263 2.3919C24.6934 2.44414 24.6989 2.47641 24.6681 2.56193C24.654 2.60137 24.6641 2.62697 24.6984 2.65565C24.7816 2.72479 24.8391 2.87434 24.8356 2.98342C24.8351 3.00288 24.8346 3.02747 24.8452 3.04078C24.9249 3.13962 24.9133 3.26254 24.935 3.37623C24.9365 3.38391 24.941 3.3962 24.9385 3.39877C24.8563 3.46637 24.9466 3.52731 24.9471 3.59133C24.9471 3.62872 24.9733 3.66559 24.9794 3.704C24.9915 3.78133 24.9809 3.85201 24.8997 3.88222C24.9062 3.95034 24.9153 4.01384 24.9168 4.07684C24.9178 4.12651 24.8936 4.16083 24.8296 4.16492C24.8472 4.18029 24.8744 4.19309 24.8795 4.21153C24.886 4.23713 24.8785 4.26837 24.8714 4.29552C24.822 4.48859 24.8366 4.68577 24.8361 4.8814C24.8361 4.95054 24.8744 5.01968 24.8886 5.08984C24.8941 5.1175 24.8775 5.14874 24.8775 5.17844C24.8775 5.21685 24.876 5.25885 24.8911 5.29214C24.9304 5.38125 24.9612 5.46883 24.9365 5.56767C24.9985 5.68956 24.9118 5.83449 24.9955 5.95331C24.9955 6.10849 25.0071 6.26571 24.9884 6.41884C24.9804 6.48337 24.9884 6.54432 24.9849 6.6068C24.9778 6.73586 24.9783 6.86543 24.9809 6.99448C24.9824 7.09077 24.996 7.18705 24.9965 7.28333C24.9965 7.32481 24.9773 7.3663 24.9673 7.40778C24.9627 7.42724 24.9491 7.45285 24.9567 7.46514C24.9894 7.51994 24.9324 7.5522 24.9264 7.59471C24.9506 7.6111 24.9864 7.62339 24.9884 7.63978C24.9935 7.68638 25.0021 7.76064 24.9783 7.77652C24.9062 7.82415 24.9148 7.8856 24.9279 7.94757C24.944 8.02388 24.9304 8.09814 24.9279 8.17342C24.9259 8.2272 24.9213 8.2779 24.9743 8.31631C24.9915 8.32911 24.9975 8.36599 24.998 8.39211C24.9995 8.53551 24.9945 8.67839 24.998 8.82179C24.9995 8.87659 24.9612 8.92422 24.992 8.98926C25.0111 9.03023 24.9673 9.09886 24.9587 9.15622C24.9536 9.19002 24.9582 9.2274 24.9683 9.26018C25.0167 9.41997 25.0071 9.58027 24.9819 9.74261C24.9728 9.801 24.9804 9.86246 24.9834 9.92238C24.9864 9.97871 24.998 10.0345 24.998 10.0904C24.998 10.1825 24.9778 10.2727 24.9965 10.3669C25.0081 10.4263 24.9788 10.4878 24.9955 10.5549C25.0101 10.6148 24.9849 10.6834 24.9849 10.7479C24.9849 10.8079 24.995 10.8678 24.9995 10.9282C25.0026 10.9738 25.0041 11.0194 24.9526 11.0342C24.9688 11.0803 25.0046 11.1285 24.994 11.1602C24.9531 11.2775 25.0046 11.3886 25 11.5023C24.9955 11.616 24.9839 11.7302 24.9844 11.8439C24.9844 11.9658 24.991 12.0877 25.0015 12.2091C25.0096 12.3038 24.9824 12.3801 24.9012 12.4462C24.9335 12.4692 24.9577 12.4866 24.9879 12.5082C24.9849 12.5143 24.9763 12.5235 24.9778 12.5312C24.994 12.6295 24.9304 12.7161 24.9365 12.8124C24.939 12.8549 24.9203 12.9025 24.9688 12.9353C24.9794 12.9425 24.9804 12.9727 24.9778 12.9906C24.9622 13.1012 24.943 13.2093 24.9788 13.323C24.996 13.3762 24.9733 13.4428 24.9673 13.5038C24.9461 13.7265 24.9113 13.9462 24.8447 14.1598C24.8326 14.1982 24.821 14.232 24.7796 14.2566C24.7448 14.2771 24.7236 14.3222 24.6964 14.3565C24.764 14.4282 24.7665 14.4533 24.709 14.5321C24.6646 14.5931 24.6106 14.6484 24.5769 14.715C24.5365 14.7938 24.5163 14.8829 24.482 14.9649C24.4437 15.0571 24.4215 15.1605 24.3231 15.2153C24.3105 15.222 24.3131 15.2522 24.3025 15.267C24.2485 15.3418 24.1945 15.4171 24.135 15.4873C24.1209 15.5042 24.0851 15.5021 24.0679 15.5062C24.0306 15.6061 23.9741 15.6911 23.9025 15.7628C23.8223 15.8427 23.733 15.9134 23.6518 15.9917C23.5661 16.0747 23.4652 16.1172 23.3492 16.1172C23.2967 16.1172 23.2649 16.1433 23.2695 16.1848C23.2781 16.2637 23.2301 16.297 23.1772 16.3256C23.0329 16.4045 22.8982 16.5008 22.7313 16.5351C22.6521 16.5515 22.581 16.6047 22.5048 16.638C22.4796 16.6488 22.4488 16.6595 22.4236 16.6544C22.3676 16.6426 22.3333 16.6575 22.2869 16.6974C22.2309 16.7461 22.1528 16.7369 22.0832 16.6754C22.0362 16.7062 21.9909 16.7466 21.9379 16.7666C21.89 16.785 21.8395 16.8327 21.7805 16.7886C21.775 16.7845 21.7629 16.7814 21.7598 16.784C21.6912 16.848 21.605 16.7871 21.5278 16.8204C21.4476 16.8547 21.4391 16.8429 21.2544 16.7604C21.2519 16.7886 21.2499 16.8147 21.2469 16.8444C21.198 16.8388 21.2499 16.7497 21.1874 16.7702C21.1662 16.7773 21.1546 16.8142 21.1339 16.8444C21.0744 16.7768 21.0149 16.8127 20.9498 16.8434C20.8499 16.89 20.7889 16.9714 20.7329 17.0611C20.7289 17.0677 20.7203 17.0739 20.7198 17.081C20.7142 17.206 20.686 17.3366 20.7127 17.4539C20.7319 17.5379 20.748 17.6208 20.7359 17.6997C20.7173 17.8195 20.7067 17.9322 20.7359 18.0531C20.7531 18.1237 20.7319 18.1985 20.7026 18.2753C20.6653 18.3726 20.6214 18.4874 20.7026 18.597C20.7238 18.6256 20.7284 18.6774 20.7213 18.7148C20.7052 18.7977 20.7264 18.8781 20.7213 18.9596C20.7193 18.9928 20.7496 19.04 20.68 19.0507C20.6552 19.0543 20.691 19.0942 20.6825 19.1286C20.6663 19.1931 20.691 19.2684 20.6961 19.3391C20.6981 19.3647 20.7042 19.4046 20.6905 19.4148C20.631 19.4609 20.6361 19.5183 20.6487 19.5803C20.6613 19.6412 20.6446 19.6786 20.5912 19.7232C20.5322 19.7723 20.453 19.8092 20.4247 19.8947C20.4187 19.9132 20.3894 19.9311 20.3677 19.9352C20.2361 19.9618 20.1044 19.9931 19.9683 19.9731C19.9456 19.9695 19.9188 19.9608 19.9047 19.9449C19.877 19.9142 19.8608 19.9224 19.8366 19.9475C19.829 19.9552 19.8008 19.9521 19.7887 19.9439C19.7584 19.9229 19.7277 19.9439 19.7065 19.9408C19.6485 19.9321 19.6026 19.9582 19.5511 19.9649C19.4956 19.9726 19.4392 19.9772 19.3832 19.9762C19.1426 19.9726 18.9015 19.9541 18.6619 19.968C18.558 19.9741 18.4738 19.9434 18.386 19.9101C18.3366 19.8911 18.2801 19.8655 18.27 19.7979C18.2685 19.7872 18.2629 19.7728 18.2549 19.7682C18.1146 19.6863 18.0985 19.5424 18.0884 19.4036C18.0808 19.2996 18.0728 19.1936 18.1131 19.0891C18.1303 19.0441 18.1111 18.9821 18.1005 18.9293C18.0864 18.8582 18.0697 18.7926 18.1131 18.7214C18.1323 18.6897 18.1217 18.6374 18.1197 18.5944C18.1151 18.4889 18.1025 18.3834 18.102 18.2774C18.1015 18.0567 18.1045 17.8359 18.1101 17.6152C18.1126 17.5184 18.1313 17.4216 18.1293 17.3253C18.1272 17.2255 18.1182 17.123 18.0945 17.0267C18.0834 16.9817 18.0339 16.9428 17.9951 16.909C17.9532 16.8726 17.9063 16.8496 17.8872 16.7855C17.8761 16.7481 17.8236 16.719 17.7838 16.6974C17.7641 16.6867 17.7308 16.7021 17.696 16.7067C17.699 16.7512 17.7015 16.7901 17.7036 16.8286C17.6042 16.8721 17.5961 16.8705 17.4463 16.7656C17.4342 16.7891 17.4231 16.8111 17.407 16.8419C17.3 16.8506 17.1881 16.8839 17.0756 16.8229C17.0373 16.8024 16.9934 16.8091 16.9626 16.8598C16.9318 16.911 16.8819 16.9504 16.8506 17.0017C16.831 17.0329 16.8168 17.078 16.8224 17.1133C16.8456 17.2669 16.7639 17.4032 16.7588 17.5512C16.7588 17.563 16.7407 17.5747 16.7139 17.6065C16.7498 17.6311 16.7825 17.6536 16.8022 17.6669C16.8083 17.7386 16.8179 17.7965 16.8168 17.8544C16.8133 18.0869 16.8078 18.3199 16.8002 18.5524C16.7992 18.579 16.7815 18.6041 16.776 18.6308C16.7528 18.7388 16.719 18.8474 16.783 18.9539C16.7891 18.9637 16.7952 18.9795 16.7916 18.9882C16.7397 19.1173 16.8047 19.2453 16.7957 19.3739C16.7906 19.4456 16.78 19.5096 16.7281 19.5623C16.7029 19.5879 16.6711 19.6151 16.7139 19.6535C16.718 19.6571 16.7185 19.6735 16.7155 19.6755C16.6453 19.7211 16.6428 19.821 16.5525 19.8594C16.4698 19.8947 16.4027 19.9695 16.3049 19.97C16.2368 19.97 16.1637 19.9772 16.1026 19.9541C16.0224 19.9234 15.9548 19.9311 15.8822 19.9649C15.8615 19.9746 15.8353 19.9746 15.8116 19.9746C15.6184 19.9751 15.4252 19.9767 15.2321 19.9736C15.1408 19.9721 15.0535 19.9444 14.9582 19.9705C14.879 19.992 14.7892 19.9823 14.7055 19.9726C14.6454 19.9654 14.5839 19.9423 14.5299 19.9132C14.4437 19.866 14.3494 19.821 14.2848 19.7498C14.2172 19.675 14.1617 19.5772 14.1617 19.4661C14.1617 19.2781 14.1663 19.0902 14.1718 18.9027C14.1723 18.8843 14.1986 18.8684 14.2036 18.8484C14.2107 18.8218 14.2197 18.7752 14.2086 18.768C14.1834 18.7516 14.1557 18.7409 14.1653 18.7066C14.1799 18.6538 14.196 18.6 14.2208 18.5519C14.2344 18.5253 14.2667 18.5089 14.2969 18.4822C14.1784 18.3737 14.1678 18.2374 14.1819 18.092C14.1885 18.0244 14.1789 17.9558 14.1814 17.8877C14.1865 17.7437 14.193 17.5998 14.2031 17.4564C14.2056 17.4237 14.2268 17.3919 14.2404 17.3561C14.1784 17.3192 14.187 17.2516 14.1885 17.1876C14.191 17.0764 14.1653 16.9822 14.0699 16.9115C14.0472 16.8946 14.0488 16.8434 14.0341 16.7891C14.0185 16.8188 14.0104 16.8332 13.9998 16.8542C13.9857 16.8352 13.9736 16.8183 13.9615 16.8009C13.8616 16.8823 13.7628 16.952 13.6231 16.9499C13.5474 16.9489 13.4622 16.9673 13.4304 17.0764C13.4112 17.142 13.331 17.1609 13.2599 17.165C13.2206 17.1671 13.1807 17.1712 13.1429 17.1819C13.1237 17.1876 13.1015 17.2065 13.0945 17.2249C13.0743 17.2782 13.0622 17.3207 12.9845 17.2946C12.9578 17.2859 12.9093 17.3417 12.8725 17.3699C12.8478 17.3888 12.8281 17.4155 12.8014 17.4298C12.6097 17.5327 12.4181 17.6347 12.2244 17.7335C12.1876 17.7524 12.1412 17.7524 12.1028 17.7694C12.0539 17.7909 12.0035 17.8139 11.9636 17.8482C11.9001 17.9025 11.8264 17.8958 11.7543 17.8984C11.7059 17.9005 11.6751 17.8984 11.6635 17.964C11.6569 18.0013 11.6211 18.0408 11.5702 18.0664C11.3296 18.1867 11.0956 18.3209 10.857 18.4454C10.8126 18.4684 10.7551 18.4869 10.7087 18.4787C10.6537 18.4689 10.6199 18.4802 10.6028 18.5273C10.5745 18.6057 10.5075 18.6067 10.4459 18.6149C10.3561 18.6262 10.3148 18.6543 10.2689 18.726C10.2482 18.7583 10.2129 18.7849 10.1786 18.8039C10.0404 18.8792 9.90168 18.9544 9.75995 19.022C9.68832 19.0564 9.60964 19.0779 9.53247 19.0973C9.48152 19.1101 9.42755 19.1101 9.40788 19.1736C9.40536 19.1813 9.39124 19.1916 9.38569 19.1895C9.3756 19.1864 9.36198 19.167 9.35997 19.1685C9.28834 19.2197 9.191 19.2295 9.13652 19.3078C9.06288 19.4133 8.95847 19.4594 8.8354 19.4686C8.77992 19.4727 8.74209 19.4784 8.70578 19.5434C8.67148 19.6054 8.58422 19.6412 8.51461 19.6771C8.41827 19.7267 8.31538 19.7621 8.21854 19.8097C8.16204 19.8374 8.1116 19.8773 8.05915 19.9132C7.95424 19.9838 7.84327 20.0007 7.71566 19.9925C7.525 19.9802 7.33283 19.9982 7.14167 19.9971C7.07509 19.9971 7.00901 19.9736 6.94243 19.9664C6.89553 19.9613 6.8471 19.9613 6.79969 19.9664C6.72807 19.9736 6.65745 19.9925 6.58634 19.9961C6.54044 19.9982 6.49201 19.9879 6.44813 19.9726C6.33818 19.9336 6.22721 19.9552 6.11625 19.9552C6.0885 19.9552 6.04815 19.9475 6.03504 19.928C5.99872 19.8742 5.94879 19.9178 5.90592 19.9004C5.82824 19.8681 5.86304 19.9659 5.81866 19.9982C5.66028 19.9982 5.49181 19.9992 5.32385 19.9966C5.30317 19.9966 5.26988 19.9833 5.26383 19.9674C5.23054 19.8819 5.15085 19.8998 5.08982 19.8876C5.02071 19.8737 4.99953 19.9408 4.98188 19.9884C4.87965 20.0014 4.80719 19.9837 4.76449 19.9352C4.68479 19.9946 4.58492 20.0038 4.49716 19.9797C4.40385 19.9541 4.32315 19.948 4.23942 19.9961C4.23336 19.9997 4.22277 19.9977 4.21571 19.9946C4.07599 19.9423 3.93376 19.9977 3.79354 19.9849C3.70678 19.9772 3.62104 19.9536 3.53529 19.9357C3.49393 19.927 3.45308 19.9147 3.40869 19.9029C3.39709 19.9362 3.39003 19.9577 3.38246 19.9792C3.30983 19.9541 3.23821 19.9295 3.15498 19.9004C3.13783 19.9091 3.11009 19.9234 3.07277 19.9434C3.08487 19.9633 3.09345 19.9777 3.09849 19.9869C2.86345 19.9869 2.61478 19.99 2.36612 19.9854C2.23397 19.9828 2.17849 19.9009 2.19463 19.7616C2.17042 19.7237 2.13511 19.6924 2.13208 19.6576C2.12553 19.5905 2.123 19.5163 2.14469 19.4548C2.17042 19.3821 2.20623 19.3257 2.14923 19.2474C2.1225 19.2105 2.12906 19.145 2.12956 19.0927C2.12956 18.8761 2.14015 18.6589 2.13309 18.4428C2.13057 18.3614 2.18303 18.3086 2.19866 18.2385C2.20825 18.196 2.21379 18.1622 2.17344 18.1468C2.12704 18.1294 2.12754 18.0961 2.12906 18.0597C2.13208 17.9988 2.14015 17.9384 2.14066 17.8774C2.14116 17.819 2.15125 17.7637 2.1336 17.7012C2.10031 17.5845 2.13864 17.4764 2.24759 17.3934C2.34191 17.4216 2.41404 17.3059 2.52652 17.3264C2.62235 17.3438 2.72424 17.3299 2.8241 17.3299C2.84092 17.3682 2.88127 17.3902 2.94516 17.396C2.94869 17.3863 2.95272 17.3755 2.95575 17.3648C2.95878 17.3535 2.96079 17.3422 2.96533 17.3228C3.05461 17.3228 3.14288 17.3223 3.23064 17.3228C3.24628 17.3228 3.26998 17.3243 3.27604 17.334C3.329 17.4211 3.39658 17.3735 3.45762 17.3535C3.53327 17.3289 3.60591 17.3013 3.67803 17.3617C3.68509 17.3678 3.69922 17.3689 3.70931 17.3678C3.80564 17.3566 3.90148 17.3443 3.99731 17.332C4.01698 17.3294 4.03968 17.3171 4.05632 17.3228C4.17788 17.3642 4.29793 17.3171 4.41898 17.3217C4.45025 17.3228 4.48152 17.333 4.5128 17.3356C4.54659 17.3381 4.58089 17.3392 4.61468 17.3366C4.65049 17.334 4.6863 17.3207 4.72161 17.3223C5.02626 17.333 5.33142 17.313 5.63556 17.3238C5.69861 17.3258 5.76065 17.3591 5.83782 17.3822C5.858 17.355 5.90087 17.3392 5.96039 17.3386C6.25344 17.3371 6.54649 17.3264 6.83954 17.3233C6.87585 17.3233 6.91368 17.3448 6.94798 17.3622C6.99792 17.3878 7.0418 17.3965 7.09173 17.3576C7.11796 17.3371 7.15629 17.3243 7.18908 17.3233C7.28592 17.3212 7.36713 17.2792 7.44783 17.2326C7.51038 17.1963 7.57292 17.1599 7.6395 17.1328C7.66976 17.1205 7.7091 17.1307 7.74794 17.1307C7.84731 17.0129 7.98097 16.9361 8.1227 16.8716C8.1333 16.867 8.14843 16.8634 8.15801 16.8675C8.22762 16.9002 8.2725 16.8531 8.32395 16.825C8.31639 16.8045 8.31084 16.7907 8.30378 16.7712C8.3411 16.7584 8.37994 16.7492 8.41474 16.7323C8.48536 16.6974 8.55395 16.658 8.62406 16.6216C8.64878 16.6088 8.674 16.5971 8.70023 16.5878C8.76176 16.5668 8.81573 16.5448 8.86667 16.4926C8.93931 16.4178 9.04472 16.382 9.15014 16.3779C9.20209 16.3758 9.2263 16.3497 9.25959 16.3205C9.33021 16.258 9.40738 16.2022 9.47799 16.1464C9.51078 16.174 9.52944 16.1904 9.5481 16.2063C9.56223 16.1889 9.62578 16.1874 9.56777 16.1459C9.57786 16.1361 9.58745 16.1254 9.59854 16.1172C9.63688 16.0895 9.67622 16.0624 9.71707 16.0342C9.7428 16.0496 9.766 16.0639 9.79576 16.0813C9.81392 16.0598 9.84872 16.0245 9.84569 16.0214C9.81946 15.9897 9.84519 15.983 9.86385 15.9728C9.93043 15.9349 9.99701 15.8975 10.0636 15.8601C10.1292 15.8237 10.1947 15.7874 10.2598 15.751C10.2669 15.7469 10.2734 15.7413 10.281 15.7392C10.3965 15.7075 10.4913 15.6342 10.5947 15.5784C10.6578 15.5446 10.7188 15.5067 10.7844 15.4796C10.8338 15.4591 10.8772 15.4115 10.9407 15.433C10.9513 15.4366 10.9735 15.4238 10.9816 15.4125C11.0562 15.3014 11.1843 15.2752 11.2893 15.2143C11.4522 15.1195 11.6221 15.0381 11.7891 14.9505C11.9096 14.887 12.0267 14.8143 12.1523 14.7626C12.2642 14.7165 12.3858 14.6929 12.5038 14.6622C12.5422 14.6525 12.582 14.6504 12.6279 14.6438V14.5454C12.7575 14.4189 12.9331 14.3575 13.0924 14.2694C13.1747 14.2238 13.2609 14.1967 13.3567 14.2023C13.4329 14.2069 13.5106 14.1987 13.5862 14.2054C13.6231 14.2085 13.6629 14.2269 13.6927 14.2499C13.7426 14.2894 13.788 14.2976 13.8263 14.2505C13.8672 14.2008 13.8823 14.1808 13.9383 14.2494C13.9887 14.3119 14.0881 14.2776 14.1537 14.2458C14.193 14.2269 14.2187 14.2269 14.2586 14.2264C14.361 14.2254 14.4629 14.1864 14.5663 14.2207C14.6903 14.1588 14.8154 14.2049 14.9405 14.2151C15.0021 14.2197 15.0651 14.1941 15.1276 14.1931C15.3042 14.1895 15.4822 14.1803 15.6578 14.1957C15.7536 14.2038 15.8454 14.211 15.9397 14.1921C15.9629 14.1875 15.9942 14.1834 16.0108 14.1957C16.0915 14.2535 16.1712 14.2182 16.2524 14.2023C16.2877 14.1957 16.3241 14.1931 16.3604 14.1926C16.546 14.1916 16.7316 14.19 16.9172 14.1926C16.9742 14.1931 17.0373 14.1706 17.0857 14.2305C17.0943 14.2412 17.1366 14.2264 17.1629 14.2207C17.2012 14.2126 17.24 14.191 17.2768 14.1951C17.3949 14.2085 17.5119 14.2387 17.6299 14.2474C17.7111 14.2535 17.7979 14.2484 17.8745 14.2233C18.0203 14.1762 18.1661 14.1798 18.3149 14.1854C18.4622 14.1905 18.6109 14.1736 18.7572 14.1869C18.9327 14.2028 19.1098 14.1485 19.2833 14.2033C19.2959 14.2074 19.312 14.1972 19.3267 14.1967C19.4346 14.1926 19.5426 14.1869 19.651 14.188C19.6767 14.188 19.7024 14.2105 19.7322 14.2248C19.7751 14.1777 19.8517 14.1583 19.9203 14.1962C19.9693 14.2233 20 14.2269 20.0505 14.1905C20.0817 14.168 20.1508 14.1716 20.1887 14.1916C20.2426 14.2197 20.289 14.2018 20.3385 14.1987C20.4141 14.1936 20.4898 14.1834 20.566 14.1808C20.5907 14.1803 20.6219 14.191 20.6406 14.2074C20.6951 14.2561 20.7485 14.2438 20.806 14.2172C20.8504 14.1967 20.8943 14.1526 20.9463 14.2064C20.9528 14.2136 20.9755 14.2095 20.9886 14.2049C21.1273 14.1557 21.1531 14.1629 21.2307 14.2802C21.263 14.272 21.2983 14.2627 21.3452 14.251C21.3246 14.2213 21.3125 14.2044 21.3009 14.188C21.3069 14.1813 21.3119 14.1711 21.3175 14.1706C21.5359 14.1659 21.7351 14.1055 21.9127 13.9724C21.9823 13.9201 22.0428 13.9252 22.1119 13.9749C22.1578 13.938 22.1275 13.8817 22.1452 13.8346C22.1659 13.7803 22.1548 13.7127 22.2062 13.6692C22.2461 13.6354 22.2879 13.6031 22.3389 13.5621C22.2753 13.4049 22.3515 13.2543 22.4004 13.0899C22.3268 13.0095 22.3586 12.9184 22.412 12.8231C22.3459 12.7161 22.4231 12.6003 22.3903 12.4841C22.4272 12.4754 22.4569 12.4687 22.4852 12.4621C22.5018 12.3719 22.4216 12.3924 22.3863 12.3632C22.3399 12.1486 22.3525 11.7983 22.413 11.7164L22.4095 11.7195Z" fill="#666"/>
<path d="M6.12957 8.7283C6.16185 8.72113 6.18909 8.71498 6.21582 8.70884C6.21582 8.70218 6.21531 8.69501 6.21481 8.68835C6.18656 8.68425 6.15832 8.68015 6.11746 8.67401C6.14218 8.5849 6.16639 8.49681 6.19463 8.39541C6.14268 8.36058 6.14016 8.28734 6.11797 8.21616C6.08266 8.10093 6.08518 7.99952 6.12553 7.89197C6.06299 7.76394 6.16992 7.65127 6.15832 7.52631C6.15529 7.49302 6.18253 7.45717 6.18757 7.42183C6.19463 7.37164 6.27937 7.33733 6.21431 7.26717C6.20422 7.25641 6.25617 7.19444 6.26727 7.15296C6.31014 6.99112 6.33334 6.82263 6.46045 6.69665C6.47507 6.68231 6.47407 6.65158 6.48214 6.6229C6.50332 6.6188 6.52753 6.61829 6.5472 6.60856C6.58554 6.59012 6.60975 6.56759 6.59108 6.51381C6.56889 6.45082 6.58554 6.39346 6.62639 6.33405C6.70407 6.22138 6.77519 6.10513 6.8917 6.02779C6.89826 6.0237 6.9033 6.01601 6.90633 6.00884C7.01023 5.77121 7.22762 5.64471 7.40617 5.48032C7.41778 5.46956 7.43139 5.45676 7.44602 5.45318C7.57262 5.42091 7.67249 5.32258 7.80515 5.30619C7.81473 5.30517 7.82532 5.29441 7.83137 5.28519C7.98975 5.06293 8.23842 5.00813 8.47396 4.93233C8.59502 4.89341 8.72011 4.86729 8.84519 4.84271C8.90774 4.83042 8.97432 4.83759 9.03837 4.8299C9.0762 4.82529 9.11201 4.80737 9.14934 4.79969C9.23862 4.78074 9.24467 4.78586 9.26333 4.88419C9.3168 4.89648 9.35564 4.8678 9.39094 4.834C9.4434 4.78432 9.49838 4.77254 9.56546 4.80583C9.62851 4.83707 9.69408 4.87907 9.75965 4.80583C9.76722 4.79713 9.79143 4.79969 9.80656 4.80276C10.0088 4.84476 10.2136 4.87856 10.4123 4.93387C10.5702 4.97791 10.7215 5.04551 10.8733 5.10902C10.9939 5.15921 11.0963 5.23552 11.1593 5.35382C11.2945 5.32309 11.348 5.36202 11.407 5.52744C11.4927 5.56994 11.5749 5.61091 11.6572 5.6524C11.6713 5.65957 11.695 5.66981 11.6955 5.67954C11.7046 5.84342 11.8604 5.86032 11.9487 5.9438C11.9704 5.96429 12.0062 6.00526 12.0001 6.0155C11.9603 6.08311 12.0249 6.09949 12.0496 6.13381C12.0652 6.15583 12.0874 6.17324 12.1076 6.19168C12.1605 6.23982 12.1822 6.31203 12.2528 6.35095C12.2957 6.37451 12.329 6.43802 12.326 6.50869C12.324 6.54659 12.3487 6.59678 12.3774 6.62341C12.4304 6.67206 12.4485 6.72328 12.4385 6.79344C12.4324 6.83646 12.4415 6.88153 12.4435 6.92506C12.4823 6.92864 12.5171 6.93223 12.558 6.93581C12.6448 7.15757 12.7103 7.38445 12.7471 7.61798C12.7557 7.67124 12.726 7.73065 12.733 7.78443C12.7446 7.87405 12.7814 7.96009 12.7915 8.04971C12.8147 8.26174 12.7865 8.4712 12.7527 8.68118C12.7133 8.68937 12.6836 8.69552 12.6448 8.70371C12.6558 8.7283 12.6599 8.74981 12.672 8.76261C12.7239 8.81894 12.73 8.87682 12.7108 8.95261C12.6584 9.15798 12.5978 9.35976 12.5055 9.55028C12.448 9.66909 12.3981 9.79559 12.3214 9.90109C12.219 10.0414 12.1716 10.2171 12.04 10.3364C12.0138 10.36 11.9981 10.3876 11.9542 10.3917C11.9028 10.3963 11.8887 10.425 11.8519 10.5121C11.8503 10.5157 11.8478 10.5198 11.8448 10.5218C11.7585 10.5735 11.7348 10.678 11.6597 10.7415C11.6017 10.7907 11.5507 10.803 11.4821 10.7635C11.4635 10.7891 11.4398 10.8117 11.4292 10.8393C11.3974 10.9187 11.3449 10.9745 11.2668 11.0068C11.2118 11.0298 11.1639 11.056 11.1296 11.1138C11.0917 11.1784 11.0221 11.1948 10.9495 11.1727C10.8819 11.309 10.7699 11.3238 10.659 11.2972C10.6126 11.3392 10.5808 11.3786 10.5399 11.4027C10.5006 11.4257 10.4567 11.436 10.4038 11.4237C10.3109 11.4022 10.2227 11.4308 10.142 11.4856C10.0492 11.5492 9.95434 11.5804 9.84237 11.521C9.79748 11.4974 9.73947 11.4928 9.69156 11.5517C9.63103 11.626 9.54175 11.583 9.46458 11.5814C9.43028 11.5809 9.39447 11.5681 9.36169 11.5732C9.22046 11.5952 9.0757 11.5942 8.94759 11.5389C8.79324 11.4728 8.62579 11.5072 8.47396 11.4462C8.31206 11.3817 8.14914 11.3192 7.98824 11.2531C7.9489 11.2373 7.90905 11.2224 7.88887 11.1722C7.87879 11.1476 7.83188 11.1369 7.7996 11.1241C7.75975 11.1087 7.71234 11.1067 7.67905 11.0831C7.53177 10.9786 7.38701 10.8701 7.24427 10.7599C7.18374 10.7133 7.12674 10.6596 7.13078 10.5664C7.00014 10.5525 6.94466 10.4434 6.86698 10.3661C6.84328 10.3426 6.83571 10.3016 6.82361 10.2678C6.7994 10.2012 6.77771 10.1341 6.7535 10.0645H6.63396C6.59714 9.9902 6.54619 9.92055 6.53106 9.84424C6.52249 9.80174 6.52299 9.75872 6.49525 9.7244C6.40799 9.61634 6.40143 9.46424 6.29703 9.36283C6.26777 9.33467 6.28189 9.2645 6.26626 9.21739C6.25062 9.16976 6.2022 9.1252 6.20371 9.08065C6.20724 8.96593 6.14319 8.87169 6.13159 8.76312C6.13058 8.75493 6.13058 8.74673 6.12957 8.72625V8.7283ZM8.73574 7.84025C8.74482 7.89556 8.75844 7.93192 8.7544 7.96624C8.74432 8.05484 8.72969 8.14292 8.71002 8.22947C8.70043 8.27198 8.70195 8.30169 8.72717 8.34061C8.7544 8.3826 8.76197 8.43689 8.77912 8.4881C8.75844 8.49527 8.74028 8.50142 8.72666 8.50654C8.73675 8.53778 8.74533 8.56851 8.75743 8.5977C8.77761 8.64687 8.80535 8.68272 8.86436 8.69808C8.91934 8.71242 8.9723 8.74724 9.0187 8.78258C9.0757 8.82611 9.12362 8.87016 9.20129 8.88962C9.25627 8.90345 9.31075 8.92137 9.36875 8.92496C9.38237 8.92598 9.39498 8.93879 9.40809 8.94647C9.37379 9.00588 9.42423 8.98795 9.44542 8.98385C9.46811 8.97976 9.48778 8.96234 9.50947 8.9521C9.61539 8.90089 9.71627 8.83072 9.83884 8.86657C9.90441 8.80973 9.9039 8.6904 10.0068 8.70474C10.1586 8.45174 10.1753 8.18031 10.1753 7.90068C10.0255 7.86381 10.0129 7.72707 9.96443 7.61645C9.93871 7.61081 9.90441 7.61337 9.88776 7.5975C9.8232 7.53553 9.73897 7.52272 9.66129 7.49507C9.43987 7.41774 9.23105 7.46588 9.0293 7.56677C9.00559 7.57855 8.98945 7.60518 8.97028 7.62566C8.92943 7.66971 8.89513 7.73782 8.8462 7.75165C8.78517 7.76855 8.80888 7.85459 8.73574 7.84025Z" fill="#666"/>
<path d="M14.9311 6.53942C15.0118 6.51023 15.0113 6.51023 15.0123 6.40524C15.0123 6.39039 15.0139 6.37093 15.0229 6.36222C15.1122 6.27157 15.141 6.13329 15.2545 6.06262C15.2676 6.05443 15.2802 6.04213 15.2867 6.02831C15.3528 5.89925 15.4466 5.7958 15.5652 5.71693C15.66 5.65393 15.7155 5.53409 15.8476 5.52078C15.8723 5.51822 15.894 5.47008 15.9152 5.4414C15.9268 5.42552 15.9308 5.3953 15.9445 5.39069C16.0771 5.34767 16.1598 5.22527 16.2869 5.17252C16.4171 5.11875 16.5437 5.05524 16.6733 4.99942C16.7162 4.98098 16.7641 4.97279 16.8075 4.9605C16.8049 4.9902 16.7954 5.01837 16.8039 5.02708C16.8186 5.04193 16.8458 5.04449 16.8675 5.05166C16.8756 4.98508 16.9583 5.01325 16.9835 4.94821C17.0198 4.85449 17.1343 4.85244 17.2044 4.93797C17.2135 4.92363 17.2241 4.91236 17.2276 4.89904C17.2312 4.88419 17.2286 4.86729 17.2286 4.85193C17.3618 4.81813 17.3658 4.81966 17.4909 4.94206C17.5111 4.90058 17.5287 4.86371 17.559 4.80174C17.6059 4.78074 17.6745 4.76537 17.7396 4.84168C17.7537 4.85858 17.8092 4.86473 17.8238 4.85141C17.9085 4.77357 18.0074 4.78535 18.1063 4.79252C18.1703 4.79713 18.2349 4.80327 18.2979 4.81403C18.3322 4.81966 18.3766 4.82734 18.3963 4.8509C18.4412 4.90468 18.4946 4.91389 18.5572 4.91287C18.5829 4.91287 18.6091 4.92465 18.6349 4.9308C18.6984 4.94565 18.7574 4.96767 18.828 4.96204C18.9007 4.9564 18.9794 4.9815 19.0485 5.01069C19.0848 5.02605 19.1055 5.07829 19.1347 5.11619C19.172 5.13821 19.2149 5.16331 19.2654 5.19352C19.2739 5.17969 19.287 5.15818 19.3072 5.12541C19.4535 5.1756 19.5685 5.28776 19.7102 5.34819C19.7001 5.37072 19.6855 5.39377 19.6895 5.39735C19.7037 5.41067 19.7248 5.42808 19.7405 5.42552C19.8298 5.41169 19.8832 5.47366 19.9367 5.52385C20.0971 5.67544 20.255 5.83011 20.4073 5.9899C20.4461 6.03087 20.4618 6.09488 20.4961 6.16505C20.5757 6.18195 20.6252 6.2475 20.6449 6.34993C20.6529 6.39244 20.6852 6.43392 20.7215 6.47284C20.7881 6.54403 20.8295 6.64082 20.8743 6.73045C20.8824 6.74632 20.8567 6.77961 20.8461 6.80522C20.8809 6.84414 20.9586 6.83851 20.9485 6.91123C20.9414 6.9604 21.0105 6.97678 20.9868 7.04541C20.9717 7.08894 21.0287 7.15808 21.0519 7.21647C21.0811 7.2897 21.1235 7.36038 21.0958 7.44539C21.0938 7.45205 21.0927 7.46434 21.0963 7.46741C21.176 7.52938 21.1417 7.62618 21.1699 7.70095C21.1477 7.72707 21.1281 7.75062 21.1059 7.77674C21.1815 7.84742 21.2204 7.91246 21.1608 8.01745C21.1376 8.05842 21.1366 8.1378 21.1719 8.20284C21.1972 8.24842 21.1961 8.31244 21.1956 8.36826C21.1946 8.45277 21.1835 8.53727 21.1765 8.62177C21.1745 8.64584 21.178 8.67657 21.1649 8.69296C21.0958 8.78361 21.125 8.89781 21.0882 8.99717C21.066 9.0576 21.0711 9.12827 21.0645 9.18871C21.0257 9.19741 21.0025 9.20202 20.9873 9.20561C20.9712 9.29318 20.9566 9.3741 20.9409 9.45963C20.9152 9.44529 20.8996 9.43658 20.8733 9.42224C20.8804 9.49445 20.8865 9.56001 20.8915 9.60917C20.7735 9.77664 20.6635 9.93284 20.55 10.0937C20.5611 10.1116 20.5732 10.131 20.5874 10.1536C20.5601 10.192 20.5344 10.2335 20.5031 10.2698C20.3982 10.3917 20.2862 10.5085 20.1864 10.6345C20.14 10.6929 20.0572 10.7036 20.027 10.7774C20.0245 10.783 20.0123 10.7886 20.0058 10.7871C19.914 10.7722 19.9009 10.847 19.8565 10.9018C19.7975 10.9745 19.7087 11.0268 19.6255 11.0744C19.4636 11.1666 19.2971 11.2501 19.1317 11.3351C19.0898 11.3566 19.0475 11.3735 18.994 11.3566C18.9143 11.3315 18.8427 11.3479 18.7832 11.4191C18.7075 11.5092 18.6086 11.5276 18.5057 11.4713C18.4492 11.4401 18.4119 11.4713 18.3781 11.499C18.3191 11.5486 18.2601 11.5676 18.1905 11.5312C18.1431 11.5061 18.1068 11.5343 18.0654 11.5497C18.0003 11.5737 17.9302 11.6403 17.8732 11.5317C17.8692 11.5241 17.8117 11.543 17.7799 11.5543C17.7557 11.5625 17.7224 11.5942 17.7118 11.587C17.6332 11.5328 17.5454 11.5804 17.4622 11.5563C17.3578 11.5261 17.2443 11.5323 17.1358 11.5148C17.0909 11.5077 17.0501 11.4785 17.0067 11.4606C16.989 11.4534 16.9704 11.4457 16.9517 11.4452C16.7701 11.438 16.6052 11.3725 16.4604 11.27C16.35 11.1917 16.2385 11.1282 16.1084 11.0944C16.0635 11.0826 16.0171 11.0544 15.9858 11.0201C15.9298 10.9602 15.8572 10.9274 15.7952 10.8788C15.7331 10.8301 15.7372 10.7497 15.7215 10.655C15.6993 10.699 15.6867 10.7241 15.6681 10.762C15.609 10.7133 15.5525 10.6667 15.4865 10.6119C15.546 10.5679 15.5591 10.5233 15.5193 10.4639C15.2812 10.5162 15.2787 10.3088 15.2101 10.1643C15.197 10.1654 15.1813 10.1659 15.1667 10.1689C15.1556 10.171 15.1455 10.1771 15.1238 10.1858C15.0477 10.0604 14.9644 9.94001 14.8984 9.81044C14.7808 9.58049 14.6744 9.34389 14.6169 9.08986C14.5977 9.00485 14.5962 8.91574 14.5841 8.80921C14.4832 8.75698 14.5604 8.64021 14.5402 8.547C14.5367 8.52959 14.572 8.50347 14.5912 8.47888C14.5574 8.44252 14.5574 8.44201 14.5947 8.3826C14.4474 8.21411 14.4913 8.01898 14.5246 7.82181C14.5428 7.71324 14.5685 7.60723 14.573 7.49404C14.5771 7.3911 14.5745 7.26512 14.6835 7.18932C14.7047 7.17498 14.7087 7.13299 14.7173 7.10328C14.7334 7.049 14.7087 6.97832 14.7823 6.94708C14.7909 6.9435 14.7965 6.91533 14.7929 6.90201C14.7682 6.81853 14.8298 6.76271 14.855 6.69562C14.8736 6.64543 14.9009 6.59832 14.9296 6.5384L14.9311 6.53942ZM18.4099 8.73649C18.3928 8.68067 18.4003 8.63918 18.4518 8.61153C18.5173 8.57568 18.5451 8.52088 18.5416 8.44304C18.5385 8.37902 18.5481 8.31603 18.5905 8.26071C18.6041 8.2433 18.6026 8.20796 18.5975 8.18287C18.59 8.14446 18.5698 8.10912 18.5612 8.07071C18.5506 8.02359 18.5622 7.96214 18.5365 7.92987C18.4402 7.81003 18.4069 7.63437 18.2389 7.57496C18.2167 7.56728 18.2006 7.53604 18.1849 7.5135C18.1648 7.48483 18.1471 7.45359 18.1204 7.41108C18.0901 7.48483 18.0412 7.48892 17.9882 7.47253C17.9544 7.46229 17.9227 7.44386 17.8884 7.43412C17.8551 7.42439 17.7956 7.40749 17.7895 7.41774C17.7441 7.49917 17.6498 7.44846 17.5893 7.50378C17.5388 7.54987 17.4531 7.55653 17.3905 7.57803C17.3552 7.63181 17.3235 7.68251 17.2897 7.73116C17.2286 7.81823 17.1681 7.90734 17.156 8.0154C17.1414 8.14753 17.1383 8.28171 17.1313 8.41487C17.1308 8.42562 17.1373 8.43843 17.1434 8.44816C17.1958 8.53112 17.2488 8.61358 17.3043 8.70064C17.3905 8.7539 17.4869 8.81382 17.5852 8.87477C17.5926 8.91574 17.6091 8.95159 17.6347 8.98232C17.6906 8.92188 17.6906 8.92342 17.7845 8.92444C17.8283 8.92496 17.8753 8.927 17.9161 8.91318C18.0362 8.87374 18.1728 8.94339 18.2828 8.84762C18.2768 8.78822 18.3195 8.75117 18.4099 8.73649Z" fill="#666"/>
</g>
</svg>
