<svg width="25" height="25" viewBox="0 0 25 25" fill="none" xmlns="http://www.w3.org/2000/svg">
<path id="Icon" d="M25 14.4751C25 16.2655 23.5684 17.7168 21.8023 17.7168C21.5294 17.7168 21.2647 17.6817 21.0121 17.6166L15.961 21.337C15.9786 21.475 15.989 21.6159 15.989 21.7584C15.989 23.5487 14.5574 25 12.7913 25C11.0253 25 9.59363 23.5487 9.59363 21.7584C9.59363 21.5997 9.60571 21.4433 9.62713 21.2908L4.43328 17.4657C4.05327 17.6271 3.63591 17.7168 3.19769 17.7168C1.43163 17.7168 0 16.2655 0 14.4751C0 12.8724 1.14772 11.5419 2.65568 11.2808L4.41625 5.78683C3.67435 5.19339 3.19769 4.27429 3.19769 3.24163C3.19769 1.4513 4.62932 0 6.39539 0C7.57002 0 8.59638 0.642426 9.15211 1.59938H16.4294C16.9852 0.642426 18.0115 0 19.1862 0C20.9522 0 22.3839 1.4513 22.3839 3.24163C22.3839 4.24924 21.9308 5.14886 21.2197 5.74341L23.0632 11.4957C24.2021 11.9917 24.9994 13.1391 24.9994 14.4751H25ZM12.4217 8.4456C12.5535 8.42779 12.6881 8.41721 12.8254 8.41721C12.9138 8.41721 13.0011 8.42166 13.0873 8.42945L15.6656 4.49419H9.55739L12.4223 8.4456H12.4217ZM17.9539 6.2333L15.4662 10.0305C15.687 10.453 15.8127 10.9346 15.8127 11.4462C15.8127 13.119 14.475 14.4751 12.8248 14.4751C11.1746 14.4751 9.8369 13.119 9.8369 11.4462C9.8369 10.9858 9.93849 10.5499 10.1197 10.1591L7.34816 6.33629C7.30972 6.34854 7.27073 6.35911 7.23119 6.37024L5.38935 12.1164C6.00769 12.7076 6.39429 13.5449 6.39429 14.4746C6.39429 14.7463 6.36079 15.0096 6.29874 15.2618L11.2559 18.9131C11.7111 18.6604 12.2339 18.5162 12.7897 18.5162C13.3454 18.5162 13.8973 18.6687 14.3613 18.9354L18.821 15.6509C18.6809 15.2863 18.603 14.8899 18.603 14.4746C18.603 13.3055 19.2136 12.2818 20.1285 11.7112L18.4228 6.38917C18.2608 6.34909 18.1038 6.29676 17.9528 6.23274L17.9539 6.2333Z" fill="#666"/>
</svg>
