<svg width="82" height="33" viewBox="0 0 82 33" fill="none" xmlns="http://www.w3.org/2000/svg">
<g id="1">
<g id="Futurise">
<path d="M69.5554 15.7143C68.8264 15.7143 68.3339 16.1727 68.1368 17.0097H70.8164C70.777 16.2723 70.3238 15.7143 69.5554 15.7143Z" fill="#041527"/>
<path fill-rule="evenodd" clip-rule="evenodd" d="M0 9.35714C0 5.18185 0 3.0942 1.2824 1.7971C2.56479 0.5 4.62878 0.5 8.75676 0.5H73.2432C77.3712 0.5 79.4352 0.5 80.7176 1.7971C82 3.0942 82 5.18185 82 9.35714V23.6429C82 27.8182 82 29.9058 80.7176 31.2029C79.4352 32.5 77.3712 32.5 73.2432 32.5H8.75676C4.62878 32.5 2.56479 32.5 1.2824 31.2029C0 29.9058 0 27.8182 0 23.6429V9.35714ZM70.9149 19.3214H73.7718C73.4566 21.394 71.9198 22.6495 69.6145 22.6495C66.8956 22.6495 65.1026 20.7562 65.1026 17.9662C65.1026 15.1962 66.9941 13.283 69.5554 13.283C72.2744 13.283 73.8112 15.1165 73.8112 17.7869V18.5641H68.0777C68.1762 19.6402 68.7279 20.2182 69.6145 20.2182C70.245 20.2182 70.7376 19.9392 70.9149 19.3214ZM59.2461 19.6801H56.2316C56.5075 21.6132 58.1428 22.6495 60.4086 22.6495C62.5759 22.6495 64.29 21.5932 64.29 19.6801C64.29 18.2253 63.4231 17.3684 61.8075 16.9897L60.0539 16.5712C59.6402 16.4915 59.4432 16.352 59.4432 16.073C59.4432 15.6745 59.8175 15.4752 60.2707 15.4752C60.98 15.4752 61.2558 15.814 61.3543 16.1926H64.2112C63.9354 14.419 62.6153 13.283 60.1919 13.283C58.1034 13.283 56.409 14.399 56.409 16.3122C56.409 17.8865 57.3744 18.604 58.8521 18.9228L60.5859 19.2815C61.0194 19.3812 61.2755 19.5007 61.2755 19.8395C61.2755 20.258 60.8815 20.4573 60.3692 20.4573C59.8175 20.4573 59.3841 20.1783 59.2461 19.6801ZM55.0655 13.4824V22.4502H51.9722V13.4824H55.0655ZM55.2822 11.0511C55.2822 12.0674 54.4744 12.7251 53.5287 12.7251C52.5829 12.7251 51.7751 12.0674 51.7751 11.0511C51.7751 10.0148 52.5829 9.35714 53.5287 9.35714C54.4744 9.35714 55.2822 10.0148 55.2822 11.0511ZM50.7263 16.4517V13.4425C50.5883 13.3627 50.2731 13.283 49.879 13.283C48.9924 13.283 48.3028 13.6816 47.8694 14.2795V13.4823H44.776V22.4502H47.8694V17.189C48.027 16.5513 48.5984 16.1727 49.4456 16.1727C49.9382 16.1727 50.3519 16.2524 50.7263 16.4517ZM43.1289 13.4824V22.4502H40.0355V21.673C39.5627 22.231 38.6761 22.6495 37.6712 22.6495C35.7207 22.6495 34.5582 21.3542 34.5582 19.3613V13.4824H37.6318V18.6239C37.6318 19.3812 37.9865 19.9193 38.7746 19.9193C39.346 19.9193 39.8779 19.5407 40.0355 18.9229V13.4824H43.1289ZM28.2441 15.9137V19.3613C28.2441 21.6332 29.4263 22.6296 31.5147 22.6296C32.2043 22.6296 32.8742 22.51 33.2289 22.3506V19.7001C32.953 19.8197 32.5787 19.8994 32.2437 19.8994C31.633 19.8994 31.298 19.6005 31.298 18.903V15.9137H33.1501V13.4824H31.298V11.0112H28.2441V13.4824H26.9437V15.9137H28.2441ZM25.9467 13.4824V22.4502H22.8534V21.673C22.3805 22.231 21.4939 22.6495 20.4891 22.6495C18.5385 22.6495 17.3761 21.3542 17.3761 19.3613V13.4824H20.4497V18.6239C20.4497 19.3812 20.8043 19.9193 21.5924 19.9193C22.1638 19.9193 22.6958 19.5407 22.8534 18.9229V13.4824H25.9467ZM7.66216 22.4502H10.7949V18.1257H15.7403V15.4154H10.7949V12.9841H16.1737V10.2141H7.66216V22.4502Z" fill="#041527"/>
</g>
</g>
</svg>
