<svg width="89" height="33" viewBox="0 0 89 33" fill="none" xmlns="http://www.w3.org/2000/svg">
<g id="4">
<g id="Ocous">
<path d="M0.959961 18.35C0.959961 15.1833 1.84329 12.65 3.60996 10.75C5.37663 8.83333 7.79329 7.875 10.86 7.875C11.8433 7.875 12.5433 8.075 12.96 8.475C13.3933 8.85833 13.61 9.45833 13.61 10.275C13.61 10.3917 13.5933 10.6167 13.56 10.95C14.1766 10.45 14.86 10.2 15.61 10.2C16.6266 10.2 17.4933 10.6583 18.21 11.575C18.9433 12.475 19.31 13.7833 19.31 15.5C19.31 17.2167 19.035 18.7917 18.485 20.225C17.935 21.6583 17.2016 22.8333 16.285 23.75C15.385 24.6667 14.3516 25.375 13.185 25.875C12.035 26.375 10.8433 26.625 9.60996 26.625C6.94329 26.625 4.83496 25.8667 3.28496 24.35C1.73496 22.8167 0.959961 20.8167 0.959961 18.35ZM13.435 19.525C12.3683 18.225 11.835 16.825 11.835 15.325C11.835 13.825 12.1683 12.6167 12.835 11.7C12.535 11.65 12.235 11.625 11.935 11.625C10.7516 11.625 9.72663 11.9833 8.85996 12.7C7.22663 14.0333 6.40996 15.8833 6.40996 18.25C6.40996 19.6 6.70996 20.725 7.30996 21.625C7.90996 22.525 8.74329 22.975 9.80996 22.975C10.6266 22.975 11.3683 22.6583 12.035 22.025C12.7183 21.375 13.185 20.5417 13.435 19.525Z" fill="black"/>
<path d="M20.8203 20.05C20.8203 17.3833 21.737 15.2083 23.5703 13.525C25.4036 11.8417 27.712 11 30.4953 11C31.9286 11 33.062 11.275 33.8953 11.825C34.7286 12.3583 35.1453 13.0333 35.1453 13.85C35.1453 14.6667 34.862 15.2917 34.2953 15.725C33.7453 16.1583 33.137 16.375 32.4703 16.375C31.8203 16.375 31.2203 16.2 30.6703 15.85C30.137 15.5 29.7203 14.9917 29.4203 14.325C28.3703 14.7583 27.537 15.525 26.9203 16.625C26.3203 17.725 26.0203 18.825 26.0203 19.925C26.0203 21.025 26.237 21.9167 26.6703 22.6C27.1036 23.2833 27.6703 23.625 28.3703 23.625C29.0703 23.625 29.637 23.3917 30.0703 22.925C30.5203 22.4583 30.7453 21.7667 30.7453 20.85C33.1786 20.85 34.3953 21.425 34.3953 22.575C34.3953 23.5583 33.7786 24.4833 32.5453 25.35C31.312 26.2 29.687 26.625 27.6703 26.625C25.6536 26.625 24.0036 26.025 22.7203 24.825C21.4536 23.6083 20.8203 22.0167 20.8203 20.05Z" fill="black"/>
<path d="M49.0877 12.9C50.021 12.9 50.821 13.275 51.4877 14.025C52.171 14.775 52.5127 15.8667 52.5127 17.3C52.5127 18.7167 52.2627 20.0333 51.7627 21.25C51.2627 22.45 50.6044 23.4333 49.7877 24.2C48.971 24.9667 48.046 25.5667 47.0127 26C45.9794 26.4167 44.921 26.625 43.8377 26.625C41.6544 26.625 39.9294 26.025 38.6627 24.825C37.396 23.625 36.7627 22.0333 36.7627 20.05C36.7627 17.3667 37.621 15.1917 39.3377 13.525C41.071 11.8417 43.271 11 45.9377 11C46.5377 11 47.1377 11.0667 47.7377 11.2C47.921 11.75 48.021 12.375 48.0377 13.075C48.3877 12.9583 48.7377 12.9 49.0877 12.9ZM46.0127 16.375C46.0127 15.9083 46.121 15.3833 46.3377 14.8C46.571 14.2167 46.9377 13.75 47.4377 13.4C45.2377 13.8667 43.721 14.7583 42.8877 16.075C42.171 17.2083 41.8127 18.375 41.8127 19.575C41.8127 20.775 42.0544 21.7417 42.5377 22.475C43.0377 23.1917 43.671 23.55 44.4377 23.55C46.1377 23.55 47.3377 22.4417 48.0377 20.225C46.6877 19.3917 46.0127 18.1083 46.0127 16.375Z" fill="black"/>
<path d="M59.0838 26.625C57.6171 26.625 56.5921 26.2667 56.0088 25.55C55.4255 24.8333 55.1338 23.9333 55.1338 22.85C55.1338 21.75 55.3171 20.25 55.6838 18.35C56.0505 16.45 56.2338 15.075 56.2338 14.225C56.2338 13.375 56.0588 12.7083 55.7088 12.225C57.2588 11.4083 58.5671 11 59.6338 11C60.3171 11 60.8088 11.1417 61.1088 11.425C61.4255 11.6917 61.5838 12.1333 61.5838 12.75C61.5838 13.3667 61.3255 14.8833 60.8088 17.3C60.3088 19.7 60.0588 21.1833 60.0588 21.75C60.0588 22.3167 60.2171 22.7667 60.5338 23.1C60.8505 23.4167 61.2671 23.575 61.7838 23.575C62.3005 23.575 62.8505 23.375 63.4338 22.975C64.0171 22.5583 64.4921 21.975 64.8588 21.225C65.0921 19.875 65.5505 17.7417 66.2338 14.825L64.7338 12.825C66.4171 11.6083 68.0171 11 69.5338 11C70.2838 11 70.8171 11.1417 71.1338 11.425C71.4671 11.6917 71.6338 12.1083 71.6338 12.675C71.6338 13.225 71.3255 14.8167 70.7088 17.45C70.1088 20.0833 69.8088 21.9583 69.8088 23.075C69.8088 24.175 70.0671 24.95 70.5838 25.4C69.6505 26.2167 68.6671 26.625 67.6338 26.625C66.6171 26.625 65.8838 26.4 65.4338 25.95C64.9838 25.5 64.7588 24.9083 64.7588 24.175L64.5088 24.05C63.9588 24.85 63.1921 25.4833 62.2088 25.95C61.2421 26.4 60.2005 26.625 59.0838 26.625Z" fill="black"/>
<path d="M81.9506 14.325C81.3339 14.5083 80.8423 14.775 80.4756 15.125C80.1089 15.4583 79.7839 15.9417 79.5006 16.575C82.3173 16.9917 84.3006 17.5917 85.4506 18.375C86.6006 19.1583 87.1756 20.275 87.1756 21.725C87.1756 22.6417 86.9173 23.4417 86.4006 24.125C85.8839 24.7917 85.2339 25.3 84.4506 25.65C82.9173 26.3 81.4089 26.625 79.9256 26.625C75.7089 26.625 73.6006 25.7167 73.6006 23.9C73.6006 22.9833 74.0089 22.0667 74.8256 21.15C75.2422 21.7333 75.8672 22.2333 76.7006 22.65C77.5506 23.0667 78.3756 23.275 79.1756 23.275C80.5589 23.275 81.3923 22.6667 81.6756 21.45C79.1423 21.15 77.3089 20.5833 76.1756 19.75C75.0423 18.9167 74.4756 17.7417 74.4756 16.225C74.4756 15.025 74.8673 14.0167 75.6506 13.2C76.4506 12.3833 77.4339 11.8167 78.6006 11.5C79.7839 11.1667 81.1089 11 82.5756 11C84.0589 11 85.2756 11.2833 86.2256 11.85C87.1923 12.4 87.6756 13.075 87.6756 13.875C87.6756 14.675 87.3923 15.2917 86.8256 15.725C86.2756 16.1583 85.6673 16.375 85.0006 16.375C84.3506 16.375 83.7506 16.2 83.2006 15.85C82.6673 15.5 82.2506 14.9917 81.9506 14.325Z" fill="black"/>
</g>
</g>
</svg>
