<svg width="18" height="15" viewBox="0 0 18 15" fill="none" xmlns="http://www.w3.org/2000/svg">
<path id="Arrow(Blue)" fill-rule="evenodd" clip-rule="evenodd" d="M11.3431 0.292892L17.7071 6.65685C18.0976 7.04738 18.0976 7.68054 17.7071 8.07107L11.3431 14.435C10.9526 14.8256 10.3195 14.8256 9.92893 14.435C9.53841 14.0445 9.53841 13.4113 9.92893 13.0208L14.5858 8.36396L1 8.36396C0.447716 8.36396 6.9206e-07 7.91625 6.43778e-07 7.36396C5.95496e-07 6.81168 0.447716 6.36396 1 6.36396L14.5858 6.36396L9.92893 1.70711C9.53841 1.31658 9.53841 0.683417 9.92893 0.292892C10.3195 -0.097632 10.9526 -0.0976321 11.3431 0.292892Z" fill="#007BFF"/>
</svg>
