<svg width="711" height="1022" viewBox="0 0 711 1022" fill="none" xmlns="http://www.w3.org/2000/svg">
<g filter="url(#filter0_f_249_3461)">
<path d="M274.513 590.064C286.911 550.625 312.842 517.805 347.645 497.503C382.449 477.201 423.842 470.749 464.387 479.305C504.931 487.861 541.968 510.864 568.841 544.181C595.714 577.498 610.66 618.944 610.994 661.07C611.328 703.196 597.028 743.239 570.664 774.004C544.299 804.768 507.599 824.236 467.16 828.909C426.72 833.581 385.193 823.152 350.041 799.496C314.889 775.84 288.417 740.508 275.384 699.849L365.899 673.782C371.71 691.91 383.512 707.663 399.185 718.21C414.857 728.757 433.372 733.407 451.402 731.323C469.432 729.24 485.795 720.56 497.55 706.844C509.304 693.128 515.68 675.274 515.531 656.493C515.382 637.711 508.718 619.232 496.737 604.378C484.756 589.523 468.243 579.267 450.166 575.452C432.089 571.638 413.634 574.515 398.117 583.566C382.6 592.618 371.038 607.25 365.511 624.834L274.513 590.064Z" fill="#2AC530"/>
<path d="M499.786 444.854C497.157 472.667 462.097 484.956 441.536 465.271L251.682 283.502C233.874 266.452 240.523 237.347 264.115 229.078L478.244 154.025C501.835 145.756 526.338 163.943 524.061 188.032L499.786 444.854Z" fill="#9CFFCA"/>
<path d="M211.781 627.728L100 492.656L265.622 434.604L346.941 478.707L211.781 627.728Z" fill="#A3F9FF"/>
<path d="M237.452 396.663C288.524 266.962 398.342 199.121 482.736 245.135C567.13 291.15 594.143 433.595 543.07 563.296C491.998 692.997 382.181 760.839 297.787 714.824C213.393 668.81 186.38 526.364 237.452 396.663Z" fill="#C3FF19"/>
</g>
<defs>
<filter id="filter0_f_249_3461" x="0" y="52" width="711" height="878" filterUnits="userSpaceOnUse" color-interpolation-filters="sRGB">
<feFlood flood-opacity="0" result="BackgroundImageFix"/>
<feBlend mode="normal" in="SourceGraphic" in2="BackgroundImageFix" result="shape"/>
<feGaussianBlur stdDeviation="50" result="effect1_foregroundBlur_249_3461"/>
</filter>
</defs>
</svg>
