<svg width="112" height="26" viewBox="0 0 112 26" fill="none" xmlns="http://www.w3.org/2000/svg">
<g id="Logo">
<path d="M35.6109 8.33625V22.303H31.5452V8.33625H26.1857V4.86411H40.9429V8.33625H35.6109Z" fill="#464646"/>
<path d="M51.5442 22.303H47.6471V21.04C46.9414 21.8416 45.7966 22.5689 44.1892 22.5689C41.5584 22.5689 39.8294 20.7702 39.8294 17.9785V9.50145H43.7265V17.0557C43.7265 18.3421 44.2872 19.1671 45.5535 19.1671C46.6239 19.1671 47.6471 18.4125 47.6471 16.9071V9.49754H51.5442V22.303Z" fill="#464646"/>
<path d="M61.7731 13.2199C61.3575 13.1456 61.0674 13.1222 60.6283 13.1222C58.9463 13.1222 57.6094 14.1661 57.6094 16.0117V22.303H53.7123V9.50145H57.6094V11.1789C58.1936 10.1583 59.4364 9.43107 60.9223 9.43107C61.2869 9.43107 61.53 9.45453 61.7731 9.47799V13.2199Z" fill="#464646"/>
<path d="M66.7483 21.04V22.303H62.8513V4.86411H66.7483V10.7918C67.4776 9.86899 68.6969 9.23556 70.2299 9.23556C73.7623 9.23556 75.7579 12.2463 75.7579 15.9139C75.7579 19.5816 73.7623 22.5689 70.2299 22.5689C68.6969 22.5689 67.4776 21.9354 66.7483 21.04ZM66.7248 16.2541C66.7248 18.174 67.7716 19.2649 69.234 19.2649C70.9395 19.2649 71.8412 17.8807 71.8412 15.9139C71.8412 13.9472 70.9395 12.563 69.234 12.563C67.7716 12.563 66.7248 13.6305 66.7248 15.5738V16.2541Z" fill="#464646"/>
<path d="M83.0345 22.5689C79.2355 22.5689 76.6048 19.8983 76.6048 15.9139C76.6048 11.9296 79.2355 9.23556 83.0345 9.23556C86.8336 9.23556 89.4643 11.9335 89.4643 15.9139C89.4643 19.8944 86.8101 22.5689 83.0345 22.5689ZM83.0345 19.4095C84.5949 19.4095 85.5908 18.1466 85.5908 15.9139C85.5908 13.6813 84.591 12.4144 83.0345 12.4144C81.4781 12.4144 80.4783 13.6774 80.4783 15.9139C80.4783 18.1505 81.4781 19.4095 83.0345 19.4095Z" fill="#464646"/>
<path d="M100.454 4.86411L106.884 22.303H102.767L101.501 18.8035H94.6317L93.3653 22.303H89.3467L95.8 4.86411H100.454ZM95.851 15.4526H100.258L98.0426 9.35677L95.851 15.4526Z" fill="#464646"/>
<path d="M112 22.303H107.934V4.86411H112V22.303Z" fill="#464646"/>
<path d="M9.08797 0L0 4.50439V18.0997L3.40701 16.4105V3.92179L9.08797 1.10655V0Z" fill="#464646"/>
<path d="M14.2279 1.95503L13.632 2.25219L9.08797 4.50439V18.0997L13.632 15.8475L14.2279 15.5503L18.1759 13.5953V0L14.2279 1.95503Z" fill="#464646"/>
<path d="M8.02156 3.83186L13.632 1.05181V0L4.54398 4.50439V25.2394L13.632 20.735V17.0166L8.02156 19.7966V3.83186Z" fill="#464646"/>
</g>
</svg>
