<svg width="25" height="24" viewBox="0 0 25 24" fill="none" xmlns="http://www.w3.org/2000/svg">
<g id="Icon">
<path d="M25 16.424C24.9913 16.3711 24.9836 16.3182 24.9743 16.2654C24.9426 16.0807 24.9077 15.8965 24.8689 15.7129C24.7935 15.358 24.7039 15.0063 24.5984 14.6592C24.546 14.4867 24.4897 14.3159 24.4291 14.1462C24.3985 14.0605 24.3673 13.9754 24.3351 13.8908C24.3291 13.8752 24.2941 13.7868 24.2684 13.7206C24.2624 13.7067 24.2553 13.6905 24.2482 13.6733C24.0521 13.478 23.8685 13.2732 23.6888 13.0563C23.6467 13.0056 23.6046 12.955 23.562 12.9044C23.526 12.8754 23.4905 12.8454 23.4631 12.8276C23.45 12.8193 23.3604 12.7742 23.2981 12.7391C23.2577 12.7269 23.2178 12.7147 23.1774 12.7041C22.8141 12.6106 22.4366 12.5667 22.0678 12.5021C22.0492 12.4988 22.0306 12.496 22.0121 12.4932C22.0066 12.4927 22.0017 12.4921 21.9946 12.4916C21.9115 12.4871 21.8285 12.4754 21.7454 12.4693C21.5499 12.4554 21.3537 12.4493 21.1576 12.4459C20.8839 12.4415 20.6102 12.442 20.3364 12.4381C20.3129 12.442 20.2889 12.4443 20.2638 12.4443H17.3611C16.9677 12.5049 16.5465 12.4654 16.1504 12.4676C15.3085 12.4732 14.4682 12.5394 13.6257 12.5216C13.1411 12.5116 12.6565 12.4687 12.1725 12.4443H11.0148C10.9645 12.4482 10.9142 12.452 10.8634 12.4571C9.98328 12.5444 9.09111 12.5694 8.20658 12.5522C7.87004 12.5455 7.54169 12.4966 7.21497 12.4443H4.75152C4.71656 12.4443 4.68269 12.4398 4.6499 12.4326C4.56522 12.4721 4.47781 12.5071 4.38766 12.5244C4.23141 12.5544 4.0757 12.5772 3.91726 12.5772C3.80472 12.5772 3.69599 12.5622 3.5911 12.5338C3.30099 12.634 3.01088 12.7336 2.71859 12.8276C2.53065 12.8877 2.34052 12.9405 2.15258 13.0023C2.13674 13.0073 2.00616 13.0563 1.91875 13.0891C1.90345 13.0963 1.88706 13.1041 1.8734 13.1097C1.8663 13.1136 1.85865 13.1175 1.84991 13.1214C1.69256 13.2009 1.54068 13.2905 1.39481 13.3906C1.39098 13.3934 1.38661 13.3962 1.38279 13.3995C1.22216 13.5692 1.29537 13.4646 1.38279 13.3995C1.39262 13.389 1.40355 13.3778 1.41557 13.3645C1.35984 13.4246 1.28554 13.473 1.2249 13.5281C1.11126 13.6321 1.00308 13.7423 0.900916 13.858C0.848467 13.9175 0.800935 13.9837 0.747394 14.0416C0.745755 14.0438 0.744116 14.0455 0.743023 14.0477C0.465482 14.4366 0.230556 14.8544 0.00546341 15.2773C0.00163902 15.3841 0 15.4915 0 15.6V17.4649C0.046439 17.8355 0.0305951 18.2043 0 18.5799V19.8762C0.0169366 20.0615 0.0218536 20.2467 0 20.4298V21.1965C0 22.7443 1.23254 23.9994 2.75246 23.9994H3.83968C3.87956 23.9911 3.91999 23.9833 3.96097 23.9766C4.38766 23.9065 4.80452 23.9199 5.23449 23.9026C5.63496 23.8865 6.03105 23.8448 6.43152 23.8859C6.6965 23.9132 6.95983 23.9549 7.22262 24H15.2975C16.6366 23.8492 17.9784 23.8348 19.3246 23.9483C19.5218 23.9649 19.7185 23.9828 19.9158 24H22.247C23.7669 24 24.9995 22.7448 24.9995 21.197V19.435C24.9978 19.4289 24.9962 19.4222 24.9945 19.4161C24.8492 18.818 24.8334 17.999 24.9995 17.377V16.424H25ZM22.2683 19.6898C22.2683 20.5338 21.5963 21.2182 20.7675 21.2182H19.8781C19.2498 21.429 18.5756 21.3367 17.9276 21.3011C17.2403 21.2632 16.553 21.2332 15.8652 21.2304C15.8051 21.2376 15.745 21.2326 15.6865 21.2182H13.5815C13.4596 21.3022 13.3138 21.3522 13.1597 21.3534C12.2539 21.3584 11.2989 21.4902 10.4275 21.2182H5.89392C5.81744 21.2799 5.73002 21.3261 5.6355 21.35C5.38528 21.4129 5.13014 21.4307 4.875 21.4023C4.68979 21.3817 4.52643 21.3216 4.39695 21.2182H4.23414C3.40534 21.2182 2.73334 20.5338 2.73334 19.6898V16.7555C2.73334 15.9115 3.40534 15.2272 4.23414 15.2272H7.68592C8.18254 15.0481 8.71577 15.171 9.23807 15.156C9.74508 15.1415 10.2515 15.1588 10.7525 15.2272H11.2022C11.2557 15.2144 11.3109 15.2072 11.3677 15.2072C12.3724 15.2044 13.4056 15.0742 14.4048 15.2033C14.4731 15.2122 14.5403 15.22 14.607 15.2272H15.9373C16.0996 15.2166 16.2646 15.2133 16.4263 15.2272H19.3022C19.5705 15.2194 19.8387 15.2177 20.107 15.2272H20.7686C21.5974 15.2272 22.2694 15.9115 22.2694 16.7555V19.6898H22.2683Z" fill="#666"/>
<path d="M5.58251 19.4083C5.91851 19.188 6.14142 18.8035 6.14142 18.3662C6.14142 17.6819 5.59617 17.1266 4.92417 17.1266C4.25217 17.1266 3.70692 17.6819 3.70692 18.3662C3.70692 19.0506 4.20901 19.5607 4.84386 19.603C5.08042 19.5101 5.33556 19.4539 5.58251 19.4089V19.4083Z" fill="#666"/>
<path d="M7.98968 19.4345C8.25903 19.3872 8.51581 19.3721 8.7868 19.3788C9.09876 19.1546 9.30254 18.7846 9.30254 18.3662C9.30254 18.0302 9.17087 17.7253 8.95726 17.5016C8.86055 17.4555 8.77532 17.3887 8.71085 17.3025C8.67534 17.2808 8.63874 17.2613 8.60104 17.2429C8.55788 17.2296 8.51526 17.2151 8.47156 17.2034C8.41201 17.1878 8.35191 17.1767 8.29236 17.1628C8.28744 17.1617 8.28416 17.1606 8.28034 17.1595C8.27651 17.1595 8.27378 17.16 8.26887 17.1606C8.2634 17.1606 8.22953 17.1578 8.19511 17.1556C8.19019 17.1578 8.18473 17.1595 8.17872 17.1623C8.04596 17.2129 7.9061 17.2084 7.77497 17.1673C7.25322 17.3075 6.86859 17.7909 6.86859 18.3657C6.86859 18.9404 7.233 19.3983 7.73291 19.5524C7.80721 19.494 7.89353 19.4517 7.99023 19.4345H7.98968Z" fill="#666"/>
<path d="M20.656 17.1261H18.8591C18.7542 17.1823 18.6362 17.2151 18.5128 17.2146C17.5845 17.2129 16.6574 17.1634 15.7297 17.1261H11.5753C11.2033 17.1261 10.9017 17.4332 10.9017 17.8121V18.9193C10.9017 19.2981 11.2033 19.6053 11.5753 19.6053H13.9137C14.1142 19.5936 14.3136 19.5836 14.5108 19.5786C15.0364 19.5641 15.5625 19.5741 16.0881 19.5952C16.5345 19.5123 16.9928 19.5279 17.4561 19.5557C17.4583 19.5557 17.4605 19.5557 17.4627 19.5557C17.667 19.5507 17.8719 19.5485 18.0762 19.548C18.1243 19.548 18.1713 19.553 18.2172 19.5624C18.7351 19.5468 19.253 19.5018 19.7721 19.499C19.9087 19.4984 20.0381 19.5374 20.1507 19.6047H20.656C21.0281 19.6047 21.3297 19.2976 21.3297 18.9187V17.8115C21.3297 17.4326 21.0281 17.1255 20.656 17.1255V17.1261Z" fill="#666"/>
<path d="M25 3.99138C24.9913 3.93852 24.9836 3.88567 24.9743 3.83281C24.9426 3.6481 24.9077 3.46394 24.8689 3.28034C24.7935 2.92538 24.7039 2.57375 24.5984 2.22658C24.546 2.05411 24.4897 1.8833 24.4291 1.71361C24.3985 1.62793 24.3673 1.54281 24.3351 1.45824C24.3291 1.44266 24.2941 1.3542 24.2684 1.28799C24.2624 1.27408 24.2553 1.25795 24.2482 1.2407C24.0521 1.04541 23.8685 0.84067 23.6888 0.623687C23.6467 0.573058 23.6046 0.522429 23.562 0.471799C23.526 0.442868 23.4905 0.412824 23.4631 0.395021C23.45 0.386675 23.3604 0.341609 23.2981 0.306558C23.2577 0.294318 23.2178 0.282078 23.1774 0.271507C22.8141 0.178037 22.4366 0.134084 22.0678 0.0695459C22.0492 0.0662077 22.0306 0.0634258 22.0121 0.060644C22.0066 0.0600876 22.0017 0.0595313 21.9946 0.0589749C21.9115 0.054524 21.8285 0.0428402 21.7454 0.0367202C21.5499 0.022811 21.3537 0.016691 21.1576 0.0133528C20.8839 0.00890187 20.6102 0.00945824 20.3364 0.00556367C20.3129 0.00945824 20.2889 0.0116837 20.2638 0.0116837H17.3611C16.9677 0.0723277 16.5465 0.0328256 16.1504 0.0350511C15.3085 0.0406148 14.4682 0.106822 13.6257 0.0890187C13.1411 0.0790041 12.6565 0.0361639 12.1725 0.0116837H11.0148C10.9645 0.0155783 10.9142 0.0194728 10.8634 0.0244801C9.98328 0.11183 9.09111 0.136866 8.20658 0.119619C7.87004 0.112942 7.54169 0.0639822 7.21497 0.0116837H4.75152C4.71656 0.0116837 4.68269 0.00723277 4.6499 0C4.56522 0.0395021 4.47781 0.0745532 4.38766 0.0918005C4.23141 0.121844 4.0757 0.144655 3.91726 0.144655C3.80472 0.144655 3.69599 0.129633 3.5911 0.101259C3.30099 0.201405 3.01088 0.300994 2.71859 0.395021C2.53065 0.455108 2.34052 0.507963 2.15258 0.56972C2.13674 0.574727 2.00616 0.623687 1.91875 0.656513C1.90345 0.663746 1.88706 0.671535 1.8734 0.677099C1.8663 0.680993 1.85865 0.684888 1.84991 0.688782C1.69256 0.768343 1.54068 0.857918 1.39481 0.958064C1.39098 0.960846 1.38661 0.963628 1.38279 0.966966C1.22216 1.13666 1.29537 1.03206 1.38279 0.966966C1.39262 0.956395 1.40355 0.945267 1.41557 0.931915C1.35984 0.992002 1.28554 1.04041 1.2249 1.09549C1.11126 1.19953 1.00308 1.30969 0.900916 1.42541C0.848467 1.48494 0.800935 1.55115 0.747394 1.60901C0.745755 1.61124 0.744116 1.61291 0.743023 1.61513C0.466029 2.00459 0.231102 2.42242 0.00600975 2.84526C0.00218536 2.95208 0.000546341 3.05946 0.000546341 3.16795V5.0329C0.0469853 5.40344 0.0311414 5.77231 0.000546341 6.14785V7.44419C0.0174829 7.62946 0.0224 7.81473 0.000546341 7.99777V8.76445C0.000546341 10.3123 1.23309 11.5674 2.75301 11.5674H3.84023C3.88011 11.5591 3.92054 11.5513 3.96152 11.5446C4.38821 11.4745 4.80507 11.4879 5.23504 11.4706C5.6355 11.4545 6.0316 11.4128 6.43207 11.4539C6.69704 11.4812 6.96038 11.5229 7.22317 11.568H15.2981C16.6372 11.4172 17.979 11.4027 19.3252 11.5162C19.5224 11.5329 19.7191 11.5507 19.9163 11.568H22.2475C23.7675 11.568 25 10.3128 25 8.76501V7.00299C24.9984 6.99687 24.9967 6.99019 24.9951 6.98407C24.8498 6.38598 24.8339 5.56701 25 4.94499V3.99138ZM22.2683 7.25725C22.2683 8.10126 21.5963 8.78559 20.7675 8.78559H19.8781C19.2498 8.99645 18.5756 8.9041 17.9276 8.86849C17.2403 8.83066 16.553 8.80061 15.8652 8.79783C15.8051 8.80506 15.745 8.80006 15.6865 8.78559H13.5815C13.4596 8.8696 13.3138 8.91967 13.1597 8.92079C12.2539 8.9258 11.2989 9.05765 10.4275 8.78559H5.89392C5.81744 8.84735 5.73002 8.89353 5.6355 8.91745C5.38528 8.98032 5.13014 8.99812 4.875 8.96975C4.68979 8.94916 4.52643 8.88907 4.39695 8.78559H4.23414C3.40534 8.78559 2.73334 8.10126 2.73334 7.25725V4.32297C2.73334 3.47896 3.40534 2.79463 4.23414 2.79463H7.68592C8.18254 2.61548 8.71577 2.73844 9.23807 2.72342C9.74508 2.70895 10.2515 2.7262 10.7525 2.79463H11.2022C11.2557 2.78183 11.3109 2.7746 11.3677 2.7746C12.3724 2.77182 13.4056 2.64163 14.4048 2.77071C14.4731 2.77961 14.5403 2.7874 14.607 2.79463H15.9373C16.0996 2.78406 16.2646 2.78072 16.4263 2.79463H19.3022C19.5705 2.78684 19.8387 2.78517 20.107 2.79463H20.7686C21.5974 2.79463 22.2694 3.47896 22.2694 4.32297V7.25725H22.2683Z" fill="#666"/>
<path d="M5.58251 6.97517C5.91851 6.75485 6.14142 6.3704 6.14142 5.9331C6.14142 5.24877 5.59617 4.69351 4.92417 4.69351C4.25217 4.69351 3.70692 5.24877 3.70692 5.9331C3.70692 6.61743 4.20901 7.12762 4.84386 7.1699C5.08042 7.07699 5.33556 7.02079 5.58251 6.97573V6.97517Z" fill="#666"/>
<path d="M7.98968 7.00132C8.25903 6.95403 8.51581 6.93901 8.7868 6.94568C9.09876 6.72147 9.30254 6.35148 9.30254 5.9331C9.30254 5.59705 9.17087 5.29216 8.95725 5.0685C8.86055 5.02232 8.77532 4.95556 8.71085 4.86932C8.67534 4.84762 8.63874 4.82815 8.60104 4.80979C8.55788 4.79644 8.51526 4.78197 8.47156 4.77029C8.41201 4.75471 8.35191 4.74358 8.29236 4.72967C8.28744 4.72856 8.28416 4.72745 8.28034 4.72634C8.27651 4.72634 8.27378 4.72689 8.26886 4.72745C8.2634 4.72745 8.22953 4.72467 8.19511 4.72244C8.19019 4.72467 8.18473 4.72634 8.17872 4.72912C8.04596 4.77975 7.9061 4.7753 7.77497 4.73413C7.25322 4.87433 6.86859 5.35781 6.86859 5.93254C6.86859 6.50727 7.233 6.96516 7.7329 7.11927C7.80721 7.06085 7.89353 7.01857 7.99023 7.00132H7.98968Z" fill="#666"/>
<path d="M20.656 4.69351H18.8591C18.7542 4.7497 18.6362 4.78253 18.5128 4.78197C17.5845 4.7803 16.6574 4.73079 15.7297 4.69351H11.5753C11.2033 4.69351 10.9017 5.00063 10.9017 5.37951V6.48668C10.9017 6.86557 11.2033 7.17268 11.5753 7.17268H13.9137C14.1142 7.161 14.3136 7.15098 14.5108 7.14598C15.0364 7.13151 15.5625 7.14153 16.0881 7.16267C16.5345 7.07977 16.9928 7.09535 17.4561 7.12317C17.4583 7.12317 17.4605 7.12317 17.4627 7.12317C17.667 7.11816 17.8719 7.11593 18.0762 7.11538C18.1243 7.11538 18.1713 7.12038 18.2172 7.12984C18.7351 7.11426 19.253 7.0692 19.7721 7.06642C19.9087 7.06586 20.0381 7.10481 20.1507 7.17213H20.656C21.0281 7.17213 21.3297 6.86501 21.3297 6.48613V5.37896C21.3297 5.00007 21.0281 4.69296 20.656 4.69296V4.69351Z" fill="#666"/>
</g>
</svg>
