<svg width="1440" height="6" viewBox="0 0 1440 6" fill="none" xmlns="http://www.w3.org/2000/svg">
<g clip-path="url(#clip0_855_181)">
<path d="M6 3C6 4.65685 4.65685 6 3 6C1.34315 6 0 4.65685 0 3C0 1.34315 1.34315 0 3 0C4.65685 0 6 1.34315 6 3Z" fill="#CBD2DB"/>
<path d="M28 3C28 4.65685 26.6569 6 25 6C23.3431 6 22 4.65685 22 3C22 1.34315 23.3431 0 25 0C26.6569 0 28 1.34315 28 3Z" fill="#CBD2DB"/>
<path d="M50 3C50 4.65685 48.6569 6 47 6C45.3431 6 44 4.65685 44 3C44 1.34315 45.3431 0 47 0C48.6569 0 50 1.34315 50 3Z" fill="#CBD2DB"/>
<path d="M72 3C72 4.65685 70.6569 6 69 6C67.3431 6 66 4.65685 66 3C66 1.34315 67.3431 0 69 0C70.6569 0 72 1.34315 72 3Z" fill="#CBD2DB"/>
<path d="M94 3C94 4.65685 92.6569 6 91 6C89.3431 6 88 4.65685 88 3C88 1.34315 89.3431 0 91 0C92.6569 0 94 1.34315 94 3Z" fill="#CBD2DB"/>
<path d="M116 3C116 4.65685 114.657 6 113 6C111.343 6 110 4.65685 110 3C110 1.34315 111.343 0 113 0C114.657 0 116 1.34315 116 3Z" fill="#CBD2DB"/>
<path d="M138 3C138 4.65685 136.657 6 135 6C133.343 6 132 4.65685 132 3C132 1.34315 133.343 0 135 0C136.657 0 138 1.34315 138 3Z" fill="#CBD2DB"/>
<path d="M160 3C160 4.65685 158.657 6 157 6C155.343 6 154 4.65685 154 3C154 1.34315 155.343 0 157 0C158.657 0 160 1.34315 160 3Z" fill="#CBD2DB"/>
<path d="M182 3C182 4.65685 180.657 6 179 6C177.343 6 176 4.65685 176 3C176 1.34315 177.343 0 179 0C180.657 0 182 1.34315 182 3Z" fill="#CBD2DB"/>
<path d="M204 3C204 4.65685 202.657 6 201 6C199.343 6 198 4.65685 198 3C198 1.34315 199.343 0 201 0C202.657 0 204 1.34315 204 3Z" fill="#CBD2DB"/>
<path d="M226 3C226 4.65685 224.657 6 223 6C221.343 6 220 4.65685 220 3C220 1.34315 221.343 0 223 0C224.657 0 226 1.34315 226 3Z" fill="#CBD2DB"/>
<path d="M248 3C248 4.65685 246.657 6 245 6C243.343 6 242 4.65685 242 3C242 1.34315 243.343 0 245 0C246.657 0 248 1.34315 248 3Z" fill="#CBD2DB"/>
<path d="M270 3C270 4.65685 268.657 6 267 6C265.343 6 264 4.65685 264 3C264 1.34315 265.343 0 267 0C268.657 0 270 1.34315 270 3Z" fill="#CBD2DB"/>
<path d="M292 3C292 4.65685 290.657 6 289 6C287.343 6 286 4.65685 286 3C286 1.34315 287.343 0 289 0C290.657 0 292 1.34315 292 3Z" fill="#CBD2DB"/>
<path d="M314 3C314 4.65685 312.657 6 311 6C309.343 6 308 4.65685 308 3C308 1.34315 309.343 0 311 0C312.657 0 314 1.34315 314 3Z" fill="#CBD2DB"/>
<path d="M336 3C336 4.65685 334.657 6 333 6C331.343 6 330 4.65685 330 3C330 1.34315 331.343 0 333 0C334.657 0 336 1.34315 336 3Z" fill="#CBD2DB"/>
<path d="M358 3C358 4.65685 356.657 6 355 6C353.343 6 352 4.65685 352 3C352 1.34315 353.343 0 355 0C356.657 0 358 1.34315 358 3Z" fill="#CBD2DB"/>
<path d="M380 3C380 4.65685 378.657 6 377 6C375.343 6 374 4.65685 374 3C374 1.34315 375.343 0 377 0C378.657 0 380 1.34315 380 3Z" fill="#CBD2DB"/>
<path d="M402 3C402 4.65685 400.657 6 399 6C397.343 6 396 4.65685 396 3C396 1.34315 397.343 0 399 0C400.657 0 402 1.34315 402 3Z" fill="#CBD2DB"/>
<path d="M424 3C424 4.65685 422.657 6 421 6C419.343 6 418 4.65685 418 3C418 1.34315 419.343 0 421 0C422.657 0 424 1.34315 424 3Z" fill="#CBD2DB"/>
<path d="M446 3C446 4.65685 444.657 6 443 6C441.343 6 440 4.65685 440 3C440 1.34315 441.343 0 443 0C444.657 0 446 1.34315 446 3Z" fill="#CBD2DB"/>
<path d="M468 3C468 4.65685 466.657 6 465 6C463.343 6 462 4.65685 462 3C462 1.34315 463.343 0 465 0C466.657 0 468 1.34315 468 3Z" fill="#CBD2DB"/>
<path d="M490 3C490 4.65685 488.657 6 487 6C485.343 6 484 4.65685 484 3C484 1.34315 485.343 0 487 0C488.657 0 490 1.34315 490 3Z" fill="#CBD2DB"/>
<path d="M512 3C512 4.65685 510.657 6 509 6C507.343 6 506 4.65685 506 3C506 1.34315 507.343 0 509 0C510.657 0 512 1.34315 512 3Z" fill="#CBD2DB"/>
<path d="M534 3C534 4.65685 532.657 6 531 6C529.343 6 528 4.65685 528 3C528 1.34315 529.343 0 531 0C532.657 0 534 1.34315 534 3Z" fill="#CBD2DB"/>
<path d="M556 3C556 4.65685 554.657 6 553 6C551.343 6 550 4.65685 550 3C550 1.34315 551.343 0 553 0C554.657 0 556 1.34315 556 3Z" fill="#CBD2DB"/>
<path d="M578 3C578 4.65685 576.657 6 575 6C573.343 6 572 4.65685 572 3C572 1.34315 573.343 0 575 0C576.657 0 578 1.34315 578 3Z" fill="#CBD2DB"/>
<path d="M600 3C600 4.65685 598.657 6 597 6C595.343 6 594 4.65685 594 3C594 1.34315 595.343 0 597 0C598.657 0 600 1.34315 600 3Z" fill="#CBD2DB"/>
<path d="M622 3C622 4.65685 620.657 6 619 6C617.343 6 616 4.65685 616 3C616 1.34315 617.343 0 619 0C620.657 0 622 1.34315 622 3Z" fill="#CBD2DB"/>
<path d="M644 3C644 4.65685 642.657 6 641 6C639.343 6 638 4.65685 638 3C638 1.34315 639.343 0 641 0C642.657 0 644 1.34315 644 3Z" fill="#CBD2DB"/>
<path d="M666 3C666 4.65685 664.657 6 663 6C661.343 6 660 4.65685 660 3C660 1.34315 661.343 0 663 0C664.657 0 666 1.34315 666 3Z" fill="#CBD2DB"/>
<path d="M688 3C688 4.65685 686.657 6 685 6C683.343 6 682 4.65685 682 3C682 1.34315 683.343 0 685 0C686.657 0 688 1.34315 688 3Z" fill="#CBD2DB"/>
<path d="M710 3C710 4.65685 708.657 6 707 6C705.343 6 704 4.65685 704 3C704 1.34315 705.343 0 707 0C708.657 0 710 1.34315 710 3Z" fill="#CBD2DB"/>
<path d="M732 3C732 4.65685 730.657 6 729 6C727.343 6 726 4.65685 726 3C726 1.34315 727.343 0 729 0C730.657 0 732 1.34315 732 3Z" fill="#CBD2DB"/>
<path d="M754 3C754 4.65685 752.657 6 751 6C749.343 6 748 4.65685 748 3C748 1.34315 749.343 0 751 0C752.657 0 754 1.34315 754 3Z" fill="#CBD2DB"/>
<path d="M776 3C776 4.65685 774.657 6 773 6C771.343 6 770 4.65685 770 3C770 1.34315 771.343 0 773 0C774.657 0 776 1.34315 776 3Z" fill="#CBD2DB"/>
<path d="M798 3C798 4.65685 796.657 6 795 6C793.343 6 792 4.65685 792 3C792 1.34315 793.343 0 795 0C796.657 0 798 1.34315 798 3Z" fill="#CBD2DB"/>
<path d="M820 3C820 4.65685 818.657 6 817 6C815.343 6 814 4.65685 814 3C814 1.34315 815.343 0 817 0C818.657 0 820 1.34315 820 3Z" fill="#CBD2DB"/>
<path d="M842 3C842 4.65685 840.657 6 839 6C837.343 6 836 4.65685 836 3C836 1.34315 837.343 0 839 0C840.657 0 842 1.34315 842 3Z" fill="#CBD2DB"/>
<path d="M864 3C864 4.65685 862.657 6 861 6C859.343 6 858 4.65685 858 3C858 1.34315 859.343 0 861 0C862.657 0 864 1.34315 864 3Z" fill="#CBD2DB"/>
<path d="M886 3C886 4.65685 884.657 6 883 6C881.343 6 880 4.65685 880 3C880 1.34315 881.343 0 883 0C884.657 0 886 1.34315 886 3Z" fill="#CBD2DB"/>
<path d="M908 3C908 4.65685 906.657 6 905 6C903.343 6 902 4.65685 902 3C902 1.34315 903.343 0 905 0C906.657 0 908 1.34315 908 3Z" fill="#CBD2DB"/>
<path d="M930 3C930 4.65685 928.657 6 927 6C925.343 6 924 4.65685 924 3C924 1.34315 925.343 0 927 0C928.657 0 930 1.34315 930 3Z" fill="#CBD2DB"/>
<path d="M952 3C952 4.65685 950.657 6 949 6C947.343 6 946 4.65685 946 3C946 1.34315 947.343 0 949 0C950.657 0 952 1.34315 952 3Z" fill="#CBD2DB"/>
<path d="M974 3C974 4.65685 972.657 6 971 6C969.343 6 968 4.65685 968 3C968 1.34315 969.343 0 971 0C972.657 0 974 1.34315 974 3Z" fill="#CBD2DB"/>
<path d="M996 3C996 4.65685 994.657 6 993 6C991.343 6 990 4.65685 990 3C990 1.34315 991.343 0 993 0C994.657 0 996 1.34315 996 3Z" fill="#CBD2DB"/>
<path d="M1018 3C1018 4.65685 1016.66 6 1015 6C1013.34 6 1012 4.65685 1012 3C1012 1.34315 1013.34 0 1015 0C1016.66 0 1018 1.34315 1018 3Z" fill="#CBD2DB"/>
<path d="M1040 3C1040 4.65685 1038.66 6 1037 6C1035.34 6 1034 4.65685 1034 3C1034 1.34315 1035.34 0 1037 0C1038.66 0 1040 1.34315 1040 3Z" fill="#CBD2DB"/>
<path d="M1062 3C1062 4.65685 1060.66 6 1059 6C1057.34 6 1056 4.65685 1056 3C1056 1.34315 1057.34 0 1059 0C1060.66 0 1062 1.34315 1062 3Z" fill="#CBD2DB"/>
<path d="M1084 3C1084 4.65685 1082.66 6 1081 6C1079.34 6 1078 4.65685 1078 3C1078 1.34315 1079.34 0 1081 0C1082.66 0 1084 1.34315 1084 3Z" fill="#CBD2DB"/>
<path d="M1106 3C1106 4.65685 1104.66 6 1103 6C1101.34 6 1100 4.65685 1100 3C1100 1.34315 1101.34 0 1103 0C1104.66 0 1106 1.34315 1106 3Z" fill="#CBD2DB"/>
<path d="M1128 3C1128 4.65685 1126.66 6 1125 6C1123.34 6 1122 4.65685 1122 3C1122 1.34315 1123.34 0 1125 0C1126.66 0 1128 1.34315 1128 3Z" fill="#CBD2DB"/>
<path d="M1150 3C1150 4.65685 1148.66 6 1147 6C1145.34 6 1144 4.65685 1144 3C1144 1.34315 1145.34 0 1147 0C1148.66 0 1150 1.34315 1150 3Z" fill="#CBD2DB"/>
<path d="M1172 3C1172 4.65685 1170.66 6 1169 6C1167.34 6 1166 4.65685 1166 3C1166 1.34315 1167.34 0 1169 0C1170.66 0 1172 1.34315 1172 3Z" fill="#CBD2DB"/>
<path d="M1194 3C1194 4.65685 1192.66 6 1191 6C1189.34 6 1188 4.65685 1188 3C1188 1.34315 1189.34 0 1191 0C1192.66 0 1194 1.34315 1194 3Z" fill="#CBD2DB"/>
<path d="M1216 3C1216 4.65685 1214.66 6 1213 6C1211.34 6 1210 4.65685 1210 3C1210 1.34315 1211.34 0 1213 0C1214.66 0 1216 1.34315 1216 3Z" fill="#CBD2DB"/>
<path d="M1238 3C1238 4.65685 1236.66 6 1235 6C1233.34 6 1232 4.65685 1232 3C1232 1.34315 1233.34 0 1235 0C1236.66 0 1238 1.34315 1238 3Z" fill="#CBD2DB"/>
<path d="M1260 3C1260 4.65685 1258.66 6 1257 6C1255.34 6 1254 4.65685 1254 3C1254 1.34315 1255.34 0 1257 0C1258.66 0 1260 1.34315 1260 3Z" fill="#CBD2DB"/>
<path d="M1282 3C1282 4.65685 1280.66 6 1279 6C1277.34 6 1276 4.65685 1276 3C1276 1.34315 1277.34 0 1279 0C1280.66 0 1282 1.34315 1282 3Z" fill="#CBD2DB"/>
<path d="M1304 3C1304 4.65685 1302.66 6 1301 6C1299.34 6 1298 4.65685 1298 3C1298 1.34315 1299.34 0 1301 0C1302.66 0 1304 1.34315 1304 3Z" fill="#CBD2DB"/>
<path d="M1326 3C1326 4.65685 1324.66 6 1323 6C1321.34 6 1320 4.65685 1320 3C1320 1.34315 1321.34 0 1323 0C1324.66 0 1326 1.34315 1326 3Z" fill="#CBD2DB"/>
<path d="M1348 3C1348 4.65685 1346.66 6 1345 6C1343.34 6 1342 4.65685 1342 3C1342 1.34315 1343.34 0 1345 0C1346.66 0 1348 1.34315 1348 3Z" fill="#CBD2DB"/>
<path d="M1370 3C1370 4.65685 1368.66 6 1367 6C1365.34 6 1364 4.65685 1364 3C1364 1.34315 1365.34 0 1367 0C1368.66 0 1370 1.34315 1370 3Z" fill="#CBD2DB"/>
<path d="M1392 3C1392 4.65685 1390.66 6 1389 6C1387.34 6 1386 4.65685 1386 3C1386 1.34315 1387.34 0 1389 0C1390.66 0 1392 1.34315 1392 3Z" fill="#CBD2DB"/>
<path d="M1414 3C1414 4.65685 1412.66 6 1411 6C1409.34 6 1408 4.65685 1408 3C1408 1.34315 1409.34 0 1411 0C1412.66 0 1414 1.34315 1414 3Z" fill="#CBD2DB"/>
<path d="M1436 3C1436 4.65685 1434.66 6 1433 6C1431.34 6 1430 4.65685 1430 3C1430 1.34315 1431.34 0 1433 0C1434.66 0 1436 1.34315 1436 3Z" fill="#CBD2DB"/>
<path d="M1458 3C1458 4.65685 1456.66 6 1455 6C1453.34 6 1452 4.65685 1452 3C1452 1.34315 1453.34 0 1455 0C1456.66 0 1458 1.34315 1458 3Z" fill="#CBD2DB"/>
<path d="M1480 3C1480 4.65685 1478.66 6 1477 6C1475.34 6 1474 4.65685 1474 3C1474 1.34315 1475.34 0 1477 0C1478.66 0 1480 1.34315 1480 3Z" fill="#CBD2DB"/>
<path d="M1502 3C1502 4.65685 1500.66 6 1499 6C1497.34 6 1496 4.65685 1496 3C1496 1.34315 1497.34 0 1499 0C1500.66 0 1502 1.34315 1502 3Z" fill="#CBD2DB"/>
<path d="M1524 3C1524 4.65685 1522.66 6 1521 6C1519.34 6 1518 4.65685 1518 3C1518 1.34315 1519.34 0 1521 0C1522.66 0 1524 1.34315 1524 3Z" fill="#CBD2DB"/>
<path d="M1546 3C1546 4.65685 1544.66 6 1543 6C1541.34 6 1540 4.65685 1540 3C1540 1.34315 1541.34 0 1543 0C1544.66 0 1546 1.34315 1546 3Z" fill="#CBD2DB"/>
<path d="M1568 3C1568 4.65685 1566.66 6 1565 6C1563.34 6 1562 4.65685 1562 3C1562 1.34315 1563.34 0 1565 0C1566.66 0 1568 1.34315 1568 3Z" fill="#CBD2DB"/>
<path d="M1590 3C1590 4.65685 1588.66 6 1587 6C1585.34 6 1584 4.65685 1584 3C1584 1.34315 1585.34 0 1587 0C1588.66 0 1590 1.34315 1590 3Z" fill="#CBD2DB"/>
<path d="M1612 3C1612 4.65685 1610.66 6 1609 6C1607.34 6 1606 4.65685 1606 3C1606 1.34315 1607.34 0 1609 0C1610.66 0 1612 1.34315 1612 3Z" fill="#CBD2DB"/>
<path d="M1634 3C1634 4.65685 1632.66 6 1631 6C1629.34 6 1628 4.65685 1628 3C1628 1.34315 1629.34 0 1631 0C1632.66 0 1634 1.34315 1634 3Z" fill="#CBD2DB"/>
<path d="M1656 3C1656 4.65685 1654.66 6 1653 6C1651.34 6 1650 4.65685 1650 3C1650 1.34315 1651.34 0 1653 0C1654.66 0 1656 1.34315 1656 3Z" fill="#CBD2DB"/>
<path d="M1678 3C1678 4.65685 1676.66 6 1675 6C1673.34 6 1672 4.65685 1672 3C1672 1.34315 1673.34 0 1675 0C1676.66 0 1678 1.34315 1678 3Z" fill="#CBD2DB"/>
<path d="M1700 3C1700 4.65685 1698.66 6 1697 6C1695.34 6 1694 4.65685 1694 3C1694 1.34315 1695.34 0 1697 0C1698.66 0 1700 1.34315 1700 3Z" fill="#CBD2DB"/>
<path d="M1722 3C1722 4.65685 1720.66 6 1719 6C1717.34 6 1716 4.65685 1716 3C1716 1.34315 1717.34 0 1719 0C1720.66 0 1722 1.34315 1722 3Z" fill="#CBD2DB"/>
<path d="M1744 3C1744 4.65685 1742.66 6 1741 6C1739.34 6 1738 4.65685 1738 3C1738 1.34315 1739.34 0 1741 0C1742.66 0 1744 1.34315 1744 3Z" fill="#CBD2DB"/>
<path d="M1766 3C1766 4.65685 1764.66 6 1763 6C1761.34 6 1760 4.65685 1760 3C1760 1.34315 1761.34 0 1763 0C1764.66 0 1766 1.34315 1766 3Z" fill="#CBD2DB"/>
<path d="M1788 3C1788 4.65685 1786.66 6 1785 6C1783.34 6 1782 4.65685 1782 3C1782 1.34315 1783.34 0 1785 0C1786.66 0 1788 1.34315 1788 3Z" fill="#CBD2DB"/>
<path d="M1810 3C1810 4.65685 1808.66 6 1807 6C1805.34 6 1804 4.65685 1804 3C1804 1.34315 1805.34 0 1807 0C1808.66 0 1810 1.34315 1810 3Z" fill="#CBD2DB"/>
<path d="M1832 3C1832 4.65685 1830.66 6 1829 6C1827.34 6 1826 4.65685 1826 3C1826 1.34315 1827.34 0 1829 0C1830.66 0 1832 1.34315 1832 3Z" fill="#CBD2DB"/>
<path d="M1854 3C1854 4.65685 1852.66 6 1851 6C1849.34 6 1848 4.65685 1848 3C1848 1.34315 1849.34 0 1851 0C1852.66 0 1854 1.34315 1854 3Z" fill="#CBD2DB"/>
<path d="M1876 3C1876 4.65685 1874.66 6 1873 6C1871.34 6 1870 4.65685 1870 3C1870 1.34315 1871.34 0 1873 0C1874.66 0 1876 1.34315 1876 3Z" fill="#CBD2DB"/>
<path d="M1898 3C1898 4.65685 1896.66 6 1895 6C1893.34 6 1892 4.65685 1892 3C1892 1.34315 1893.34 0 1895 0C1896.66 0 1898 1.34315 1898 3Z" fill="#CBD2DB"/>
<path d="M1920 3C1920 4.65685 1918.66 6 1917 6C1915.34 6 1914 4.65685 1914 3C1914 1.34315 1915.34 0 1917 0C1918.66 0 1920 1.34315 1920 3Z" fill="#CBD2DB"/>
<path d="M1942 3C1942 4.65685 1940.66 6 1939 6C1937.34 6 1936 4.65685 1936 3C1936 1.34315 1937.34 0 1939 0C1940.66 0 1942 1.34315 1942 3Z" fill="#CBD2DB"/>
<path d="M1964 3C1964 4.65685 1962.66 6 1961 6C1959.34 6 1958 4.65685 1958 3C1958 1.34315 1959.34 0 1961 0C1962.66 0 1964 1.34315 1964 3Z" fill="#CBD2DB"/>
</g>
<defs>
<clipPath id="clip0_855_181">
<rect width="1440" height="6" fill="white"/>
</clipPath>
</defs>
</svg>
