<svg width="664" height="854" viewBox="0 0 664 854" fill="none" xmlns="http://www.w3.org/2000/svg">
<g filter="url(#filter0_f_249_3484)">
<path d="M501.573 446.648C514.328 484.535 513.035 524.216 497.926 558.558C482.817 592.901 454.882 619.654 419.142 634.008C383.403 648.363 342.202 649.378 302.944 636.872C263.686 624.366 228.946 599.158 204.967 565.779C180.988 532.4 169.343 493.038 172.124 454.769C174.905 416.499 191.931 381.83 220.14 356.993C248.35 332.157 285.894 318.781 326.025 319.269C366.156 319.757 406.243 334.078 439.08 359.658L384.73 427.681C370.089 416.277 352.216 409.892 334.324 409.674C316.431 409.456 299.692 415.42 287.115 426.493C274.538 437.567 266.947 453.024 265.707 470.086C264.467 487.149 269.659 504.699 280.35 519.581C291.041 534.463 306.53 545.702 324.033 551.278C341.536 556.854 359.906 556.401 375.84 550.001C391.775 543.601 404.229 531.673 410.966 516.361C417.702 501.05 418.279 483.358 412.592 466.466L501.573 446.648Z" fill="#85130C"/>
<path d="M502.797 437.936C497.801 465.644 462.583 474.739 444.776 452.921L288.534 261.482C273.333 242.856 282.553 214.761 305.841 208.747L505.914 157.076C529.201 151.061 550.892 171.173 546.628 194.826L502.797 437.936Z" fill="#FFD809"/>
<path d="M151.68 527.04L100 366.61L262.498 367.615L318.118 434.672L151.68 527.04Z" fill="#FCA947"/>
<path d="M251.549 446.948C279.394 315.496 370.081 236.345 454.103 270.16C538.125 303.975 583.665 437.95 555.82 569.403C527.975 700.856 437.288 780.007 353.266 746.192C269.244 712.377 223.704 578.401 251.549 446.948Z" fill="#E25326"/>
</g>
<defs>
<filter id="filter0_f_249_3484" x="0" y="56" width="664" height="798" filterUnits="userSpaceOnUse" color-interpolation-filters="sRGB">
<feFlood flood-opacity="0" result="BackgroundImageFix"/>
<feBlend mode="normal" in="SourceGraphic" in2="BackgroundImageFix" result="shape"/>
<feGaussianBlur stdDeviation="50" result="effect1_foregroundBlur_249_3484"/>
</filter>
</defs>
</svg>
