<svg width="724" height="1026" viewBox="0 0 724 1026" fill="none" xmlns="http://www.w3.org/2000/svg">
<g filter="url(#filter0_f_249_3470)">
<path d="M309.201 501.823C342.741 491.58 383.178 492.42 423.245 504.192C463.311 515.964 500.381 537.896 527.791 566.047C555.201 594.198 571.154 626.722 572.783 657.773C574.412 688.823 561.61 716.366 536.678 735.449C511.746 754.533 476.319 763.906 436.764 761.885C397.209 759.864 356.119 746.58 320.88 724.422C285.64 702.264 258.562 672.684 244.512 640.999C230.461 609.313 230.36 577.599 244.226 551.558L332.438 594.157C326.256 605.768 326.301 619.907 332.565 634.035C338.83 648.162 350.903 661.35 366.614 671.229C382.326 681.108 400.645 687.031 418.281 687.932C435.917 688.833 451.712 684.654 462.828 676.145C473.944 667.637 479.652 655.357 478.925 641.513C478.199 627.669 471.086 613.168 458.866 600.617C446.645 588.066 430.117 578.288 412.254 573.039C394.39 567.791 376.361 567.416 361.407 571.983L309.201 501.823Z" fill="#FFACC0"/>
<path d="M227.713 917.592C206.643 936.333 173.285 921.743 172.757 893.556L166.93 582.286C166.479 558.224 191.116 541.788 213.173 551.435L451.673 655.751C473.73 665.398 478.372 694.64 460.385 710.638L227.713 917.592Z" fill="#F79CFF"/>
<path d="M106.876 464.532L125.63 267.527L300.365 343.953L329.205 442.07L106.876 464.532Z" fill="#4200FF"/>
<path d="M308.151 291.05C449.73 221.314 588.612 247.494 618.352 349.526C648.092 451.557 557.428 590.802 415.849 660.538C274.27 730.274 135.388 704.094 105.648 602.062C75.9078 500.031 166.572 360.786 308.151 291.05Z" fill="#FFA319"/>
</g>
<defs>
<filter id="filter0_f_249_3470" x="0" y="152" width="724" height="874" filterUnits="userSpaceOnUse" color-interpolation-filters="sRGB">
<feFlood flood-opacity="0" result="BackgroundImageFix"/>
<feBlend mode="normal" in="SourceGraphic" in2="BackgroundImageFix" result="shape"/>
<feGaussianBlur stdDeviation="50" result="effect1_foregroundBlur_249_3470"/>
</filter>
</defs>
</svg>
